<?xml version="1.0" encoding="UTF-8"?>
<svg version="1.1" xmlns="http://www.w3.org/2000/svg" width="1540" height="767">
<path d="M0 0 C508.2 0 1016.4 0 1540 0 C1540 253.11 1540 506.22 1540 767 C1031.8 767 523.6 767 0 767 C0 513.89 0 260.78 0 0 Z " fill="#040404" transform="translate(0,0)"/>
<path d="M0 0 C20.53324203 -0.07035483 41.06645931 -0.12311703 61.59979725 -0.15543652 C71.1356645 -0.17084773 80.67145648 -0.19182615 90.20727539 -0.22631836 C98.52719942 -0.25639796 106.84706887 -0.27561664 115.16704577 -0.28226548 C119.56469308 -0.2861466 123.9621844 -0.29514499 128.35978127 -0.31719017 C163.46572642 -0.48637838 163.46572642 -0.48637838 179 3 C180.05294754 3.22303299 181.10589508 3.44606598 182.19075012 3.67585754 C193.30033387 6.16818303 204.35234249 11.6619637 213 19 C214.010625 19.721875 215.02125 20.44375 216.0625 21.1875 C224.86362676 28.72107318 230.11082296 41.81166011 232 53 C233.11106949 71.25985233 231.73997956 88.95449985 228.38659668 106.90771484 C227.79331418 110.11859643 227.22336281 113.33357595 226.65086365 116.54821777 C224.96725577 126.00044401 223.24451631 135.4450269 221.49693298 144.88562012 C220.5590097 149.95536733 219.63163232 155.02674118 218.72105408 160.10147095 C212.68295146 193.74368824 205.08652138 228.59952994 175.82666016 250.05541992 C158.25113166 262.1506346 136.74404777 268.13577781 115.50817871 268.12025452 C114.4443691 268.12153615 114.4443691 268.12153615 113.35906839 268.12284368 C111.00693051 268.12447737 108.65486558 268.11901205 106.30273438 268.11352539 C104.60699465 268.11324304 102.91125479 268.1134022 101.21551514 268.1139679 C96.62934748 268.11425399 92.04320616 268.10838769 87.4570446 268.10139394 C82.6577658 268.09512905 77.85848636 268.09455412 73.0592041 268.09336853 C63.97881071 268.09026445 54.8984294 268.08206352 45.81804132 268.07201904 C35.47706267 268.06082922 25.13608342 268.05534023 14.79510021 268.05032361 C-6.46993993 268.03988012 -27.7349692 268.02229858 -49 268 C-48.8497625 266.42285269 -48.69735931 264.84591159 -48.54406738 263.26905823 C-48.45943489 262.39087716 -48.3748024 261.51269609 -48.28760529 260.60790348 C-47.86905649 256.81265034 -47.19053447 253.08729664 -46.46875 249.33984375 C-46.31724991 248.53376678 -46.16574982 247.72768982 -46.00965881 246.89718628 C-45.68195584 245.15601438 -45.35235586 243.41519863 -45.02102661 241.67471313 C-44.29863078 237.87960688 -43.58559367 234.08275818 -42.8719635 230.28599548 C-42.49330027 228.27163754 -42.114173 226.25736677 -41.73460388 224.24317932 C-39.82942864 214.12478281 -37.97366579 203.99751257 -36.12155151 193.86929321 C-32.76101839 175.49450197 -29.33975146 157.13201169 -25.87643433 138.77633667 C-22.67698471 121.80185304 -19.6175669 104.804644 -16.65014648 87.78808594 C-15.14170216 79.17196891 -13.53362339 70.61069393 -11.65234375 62.06738281 C-10.67343951 57.4644813 -9.92334486 52.83437069 -9.1875 48.1875 C-7.62141481 38.56647186 -5.9532342 28.96633055 -4.21890259 19.37442017 C-3.94851981 17.87786355 -3.67928884 16.38109837 -3.41122437 14.88412476 C-3.03386712 12.77892563 -2.65234713 10.67452497 -2.26953125 8.5703125 C-2.04885986 7.35102051 -1.82818848 6.13172852 -1.60083008 4.87548828 C-1 2 -1 2 0 0 Z " fill="#00B095" transform="translate(547,476)"/>
<path d="M0 0 C2.73955984 -0.1699578 5.43787153 -0.16772894 8.18240833 -0.11788082 C9.22647846 -0.11861095 10.27054859 -0.11934109 11.34625721 -0.12009335 C14.80429134 -0.11660424 18.26098588 -0.07767855 21.71878529 -0.03853512 C24.11345655 -0.02921175 26.50813734 -0.0220934 28.90282154 -0.01709652 C35.21104654 0.0020105 41.51869752 0.05114423 47.82669544 0.10642338 C54.26134951 0.15753544 60.69609618 0.18040038 67.13089466 0.20560551 C79.7606971 0.25925852 92.39010132 0.34365817 105.01956654 0.44974613 C105.12913685 1.47970707 105.23870716 2.50966801 105.35159779 3.57083988 C106.25544984 11.78859705 107.38045246 19.91276918 108.86870766 28.04495811 C110.31665169 35.97978319 111.48738833 43.95031147 112.65628529 51.93021488 C112.89914446 53.57550497 113.14222293 55.2207627 113.38550282 56.86599064 C114.02941236 61.22447305 114.67046756 65.58337046 115.31087589 69.94236851 C115.97837234 74.48266059 116.64834207 79.02258762 117.31815052 83.5625391 C118.12482257 89.03098662 118.93129054 94.49946372 119.73656178 99.96811771 C121.30811565 110.6392441 122.88858094 121.30898384 124.48050404 131.97708988 C124.84420979 134.41759833 125.20789859 136.8581093 125.57156849 139.29862309 C126.06648431 142.61944989 126.56190485 145.94019523 127.05945301 149.2606287 C128.82092334 161.02005577 130.50592465 172.78093054 131.95232105 184.58393192 C132.61462872 189.85782888 133.4744838 195.03719897 134.58014393 200.23699284 C135.25762781 203.64852574 135.5990972 207.05187588 135.95706654 210.51224613 C136.57711466 216.15755348 137.36080115 221.73843703 138.39456654 227.32474613 C139.82623379 235.09276221 141.03867225 242.88798843 142.20706654 250.69974613 C142.47559437 252.46874271 142.47559437 252.46874271 142.749547 254.2734766 C142.91470814 255.3886768 143.07986927 256.50387699 143.25003529 257.65287113 C143.47276112 259.1480225 143.47276112 259.1480225 143.69998646 260.67337894 C144.01956654 263.44974613 144.01956654 263.44974613 144.01956654 268.44974613 C119.26956654 268.44974613 94.51956654 268.44974613 69.01956654 268.44974613 C64.01956654 234.44974613 64.01956654 234.44974613 64.01956654 224.44974613 C32.33956654 224.44974613 0.65956654 224.44974613 -31.98043346 224.44974613 C-32.97043346 227.41974613 -33.96043346 230.38974613 -34.98043346 233.44974613 C-35.95478757 235.80224795 -36.96422009 238.14059194 -38.01168346 240.46146488 C-38.28887218 241.07818562 -38.56606091 241.69490635 -38.85164928 242.33031559 C-39.43112365 243.61754125 -40.01263736 244.90385075 -40.59615612 246.18924809 C-41.48257178 248.14195669 -42.36289602 250.09732039 -43.24215221 252.05326176 C-45.73024274 257.57155616 -48.27221086 263.03330093 -50.98043346 268.44974613 C-75.40043346 268.44974613 -99.82043346 268.44974613 -124.98043346 268.44974613 C-119.27280866 255.13195493 -113.51320023 241.89774961 -107.41793346 228.76224613 C-105.99821126 225.69664841 -104.58038779 222.63017963 -103.16402721 219.56302738 C-102.81800961 218.8142281 -102.471992 218.06542881 -102.11548901 217.29393864 C-99.61016863 211.85672253 -97.16668659 206.39387752 -94.74605846 200.91849613 C-92.02877971 194.7730621 -89.23454351 188.67913408 -86.29293346 182.63724613 C-82.29171918 174.32600429 -78.4822883 165.93871841 -74.73043346 157.51224613 C-70.34081515 147.65681473 -65.87164276 137.84426104 -61.29293346 128.07474613 C-60.7149398 126.84062999 -60.13697794 125.60649895 -59.55904675 124.37235355 C-59.12057415 123.43603344 -59.12057415 123.43603344 -58.67324352 122.48079777 C-58.37629589 121.84664448 -58.07934826 121.21249119 -57.77340221 120.55912113 C-57.472104 119.91574299 -57.17080578 119.27236485 -56.86037731 118.60949039 C-52.92026167 110.19135562 -49.00664612 101.76097348 -45.10543346 93.32474613 C-44.72532116 92.50281773 -44.34520885 91.68088932 -43.953578 90.83405399 C-38.45881858 78.94023298 -33.08475276 66.99758638 -27.79293346 55.01224613 C-22.54173145 43.11977477 -17.18129453 31.28565569 -11.66793346 19.51224613 C-11.34869915 18.82848911 -11.02946484 18.14473209 -10.70055676 17.44025517 C-9.80108793 15.51605056 -8.89751902 13.59383782 -7.99215221 11.67240238 C-7.48128063 10.58709232 -6.97040905 9.50178226 -6.44405651 8.38358402 C-5.96106091 7.41541752 -5.4780653 6.44725101 -4.98043346 5.44974613 C-4.66485485 4.57594303 -4.34927624 3.70213993 -4.02413464 2.80185795 C-1.98043346 0.44974613 -1.98043346 0.44974613 0 0 Z " fill="#00B196" transform="translate(890.9804334640503,475.550253868103)"/>
<path d="M0 0 C1.17113799 0.00138269 1.17113799 0.00138269 2.36593533 0.00279331 C3.70584782 0.00073132 3.70584782 0.00073132 5.07282925 -0.00137234 C6.55420376 0.00402058 6.55420376 0.00402058 8.06550503 0.00952244 C9.09952953 0.00937641 10.13355404 0.00923038 11.19891262 0.00907993 C14.63485175 0.00977956 18.07073742 0.01757425 21.50666714 0.02539158 C23.88178382 0.02725558 26.25690089 0.02867957 28.63201809 0.0296793 C34.89727233 0.03350586 41.16250356 0.04333732 47.42774868 0.05438328 C53.81537979 0.06459443 60.2030146 0.06917628 66.59065151 0.0742197 C79.13428115 0.08495947 91.6778948 0.10184656 104.22151089 0.12304783 C105.31837846 5.49585398 106.39309154 10.85854003 107.22029018 16.28076267 C107.39255627 17.40276066 107.56482235 18.52475864 107.74230862 19.68075657 C108.01625202 21.4891048 108.01625202 21.4891048 108.29572964 23.33398533 C108.49789534 24.65779277 108.70023789 25.98157322 108.90273952 27.30532932 C109.45728207 30.93505596 110.00868615 34.56525319 110.55943203 38.19555759 C110.91253677 40.52127094 111.2665752 42.84684027 111.62092495 45.17236423 C116.52511726 77.35864042 121.34825306 109.55715626 126.16197205 141.75706959 C129.26598025 162.51784947 132.38447393 183.27590921 135.58869839 204.02148533 C135.85068281 205.72039245 136.11262597 207.41930593 136.37452602 209.11822605 C137.45943998 216.15250424 138.54652636 223.1863915 139.64788532 230.21811581 C140.08338916 233.00551423 140.51436134 235.79360073 140.9442625 238.58186817 C141.23013475 240.42592784 141.52191146 242.26906932 141.81400967 244.11215305 C143.05162654 252.16725765 143.63626656 259.92962728 144.22151089 268.12304783 C119.80151089 268.12304783 95.38151089 268.12304783 70.22151089 268.12304783 C65.22151089 232.12304783 65.22151089 232.12304783 65.22151089 223.12304783 C64.0868539 223.28381306 62.95219692 223.44457829 61.78315639 223.61021519 C57.25781608 224.17309189 52.79123469 224.29534894 48.23518276 224.32837009 C47.37570034 224.33826969 46.51621792 224.34816929 45.63069057 224.35836887 C42.8172411 224.38971147 40.00377479 224.41463243 37.19026089 224.43945408 C35.22870882 224.46004719 33.26716095 224.48104425 31.30561733 224.5024271 C26.16335884 224.55740444 21.02106192 224.60692024 15.87873745 224.65527439 C10.62316915 224.70566802 5.36765608 224.76126051 0.11213589 224.8164072 C-10.18469184 224.92369073 -20.48156769 225.02520088 -30.77848911 225.12304783 C-31.74650451 227.21393103 -32.71381844 229.305139 -33.68083286 231.39648533 C-34.21958042 232.56099216 -34.75832798 233.725499 -35.31340122 234.92529392 C-36.8601274 238.30123451 -38.32339323 241.70673577 -39.77848911 245.12304783 C-40.60831314 246.95797225 -41.44197774 248.79116239 -42.27848911 250.62304783 C-44.9174827 256.40822897 -47.4163577 262.21771928 -49.77848911 268.12304783 C-74.52848911 268.12304783 -99.27848911 268.12304783 -124.77848911 268.12304783 C-119.15951887 253.51372519 -119.15951887 253.51372519 -116.29020786 247.70507908 C-115.98331532 247.07808613 -115.67642277 246.45109318 -115.36023045 245.80510044 C-114.40064194 243.84599445 -113.43403881 241.89048469 -112.46598911 239.93554783 C-108.08913354 231.0704749 -103.86252717 222.16811105 -99.87857151 213.11885166 C-95.88638569 204.06262837 -91.70292454 195.09632158 -87.52848911 186.12304783 C-86.25604491 183.38338249 -84.98412294 180.64347507 -83.71220493 177.90356541 C-82.87668337 176.10384371 -82.04099236 174.30420067 -81.20512486 172.50463963 C-78.05199325 165.71578355 -74.91107432 158.92141224 -71.77848911 152.12304783 C-68.32501497 144.63006664 -64.86118524 137.1420018 -61.38786411 129.65820408 C-51.43584779 108.21315632 -41.53684422 86.74541291 -31.73814487 65.22985935 C-30.77302376 63.11104929 -29.80732444 60.99250363 -28.84147739 58.87402439 C-26.92318891 54.66602923 -25.00643217 50.45733896 -23.09098911 46.24804783 C-22.63118656 45.23762424 -22.63118656 45.23762424 -22.16209507 44.20678806 C-18.74640662 36.69712164 -15.34961402 29.17941768 -11.98552036 21.64648533 C-11.68114552 20.96530643 -11.37677067 20.28412754 -11.06317234 19.58230686 C-9.6136318 16.33717189 -8.1669459 13.09081278 -6.72502232 9.84228611 C-6.21930698 8.70774998 -5.71359165 7.57321384 -5.19255161 6.40429783 C-4.74863071 5.40462986 -4.30470982 4.40496189 -3.84733677 3.37500095 C-2.32169564 0.16063051 -2.32169564 0.16063051 0 0 Z " fill="#00B196" transform="translate(1338.778489112854,475.8769521713257)"/>
<path d="M0 0 C86.13 0 172.26 0 261 0 C258.74984632 10.12569158 258.74984632 10.12569158 257.24414062 14.53222656 C256.91039429 15.51644592 256.57664795 16.50066528 256.23278809 17.51470947 C255.69990173 19.06203766 255.69990173 19.06203766 255.15625 20.640625 C254.78649048 21.72583435 254.41673096 22.8110437 254.0357666 23.92913818 C253.2580001 26.2090519 252.47797379 28.48819583 251.69580078 30.76660156 C250.49943842 34.25163588 249.30965887 37.73886213 248.12109375 41.2265625 C247.36235865 43.44804631 246.60325676 45.66940489 245.84375 47.890625 C245.31086365 49.45009857 245.31086365 49.45009857 244.76721191 51.04107666 C244.43346558 52.01268738 244.09971924 52.9842981 243.75585938 53.98535156 C243.31856506 55.26034515 243.31856506 55.26034515 242.87243652 56.56109619 C241.97715622 59.06386 240.98718363 61.53204093 240 64 C185.55 64.33 131.1 64.66 75 65 C72.36 78.86 69.72 92.72 67 107 C66.01 111.95 65.02 116.9 64 122 C112.84 122 161.68 122 212 122 C210.0429359 129.17590171 208.02736362 136.13801656 205.56640625 143.12890625 C205.24719711 144.04405502 204.92798798 144.9592038 204.59910583 145.90208435 C203.92943141 147.81938176 203.25795005 149.73604894 202.5847168 151.65209961 C201.56425678 154.55749818 200.55024743 157.46508804 199.53710938 160.37304688 C198.88058833 162.25013295 198.22369959 164.12709047 197.56640625 166.00390625 C197.26835587 166.85835831 196.97030548 167.71281036 196.66322327 168.59315491 C194.59267849 174.47426052 192.32044546 180.19888635 190 186 C144.79 186.33 99.58 186.66 53 187 C50.69 199.21 48.38 211.42 46 224 C44.01542035 234.21655921 42.02633646 244.43177085 40.01489258 254.64300537 C39.47939774 257.36516001 38.94639221 260.08780026 38.41326332 262.81041908 C37.76950361 266.09532286 37.12288504 269.37966201 36.4765625 272.6640625 C36.24119781 273.86680817 36.00583313 275.06955383 35.76333618 276.30874634 C35.54575653 277.41036102 35.32817688 278.51197571 35.10400391 279.64697266 C34.91415924 280.61236969 34.72431458 281.57776672 34.52871704 282.57241821 C34 285 34 285 33 288 C4.95 288 -23.1 288 -52 288 C-52 278.9998376 -52 278.9998376 -51.36083984 275.63647461 C-51.14932281 274.49449112 -51.14932281 274.49449112 -50.93353271 273.32943726 C-50.77757629 272.5284964 -50.62161987 271.72755554 -50.4609375 270.90234375 C-50.2187851 269.61271225 -50.2187851 269.61271225 -49.97174072 268.29702759 C-49.44643064 265.50915382 -48.91084339 262.72336653 -48.375 259.9375 C-48.0090066 258.00589088 -47.6436144 256.07416775 -47.27880859 254.14233398 C-44.86386444 241.38554653 -42.40975143 228.63548994 -39.90380859 215.89624023 C-38.83894595 210.46405884 -37.82375176 205.03408461 -36.93359375 199.5703125 C-36.25865969 195.43497511 -35.45308219 191.38014596 -34.4375 187.3125 C-33.57540681 183.69685544 -32.83161684 180.20192674 -32.5 176.5 C-32.0691824 171.75239008 -30.93535134 167.23519456 -29.828125 162.60546875 C-27.99332467 154.61716353 -26.2493463 146.48037467 -25.5 138.3125 C-25.06229019 133.5959535 -23.87288411 129.09643038 -22.76171875 124.5 C-21.70267775 119.63384236 -21.05586616 114.73880421 -20.4296875 109.80078125 C-20 107 -20 107 -19 105 C-18.69826472 103.04618937 -18.43441726 101.08649229 -18.1875 99.125 C-17.36696587 93.13020215 -16.28722814 87.23699325 -15.0625 81.3125 C-13.72660841 74.83079317 -12.54067144 68.35764859 -11.5625 61.8125 C-10.26758844 53.19947265 -8.58248056 44.68446262 -6.84277344 36.15136719 C-5.33166574 28.72423844 -3.94576315 21.28826293 -2.67578125 13.81640625 C-1.85784993 9.19722183 -0.91998905 4.59994527 0 0 Z " fill="#00B699" transform="translate(608,151)"/>
<path d="M0 0 C1.68633014 0.00028257 3.37266041 0.00012277 5.05899048 -0.0004425 C9.60572569 -0.00072774 14.15243416 0.00512455 18.6991632 0.01213145 C23.46238934 0.01841075 28.22561619 0.0189724 32.98884583 0.02015686 C41.99476585 0.02325673 51.00067363 0.03145192 60.00658828 0.04150635 C70.26541314 0.05270934 80.5242386 0.05818846 90.78306806 0.06320179 C111.87337054 0.07363573 132.96366204 0.09120901 154.05395508 0.11352539 C153.34025417 3.84347776 152.38132245 7.29605937 151.12036133 10.88183594 C150.72324951 12.01618576 150.3261377 13.15053558 149.91699219 14.31925964 C149.48781494 15.53398453 149.0586377 16.74870941 148.61645508 18.00024414 C148.17161955 19.26617105 147.72704339 20.53218912 147.28271484 21.79829407 C146.35337563 24.44422082 145.42182831 27.08935554 144.48852539 29.73388672 C143.29155027 33.12569026 142.09869654 36.51892451 140.90730286 39.91269207 C139.9905158 42.52355787 139.07228291 45.13391313 138.15353394 47.74408913 C137.49889127 49.6041158 136.84490086 51.46437199 136.19091797 53.32463074 C135.79380615 54.44952408 135.39669434 55.57441742 134.98754883 56.73339844 C134.63748779 57.72647507 134.28742676 58.7195517 133.92675781 59.74272156 C133.05395508 62.11352539 133.05395508 62.11352539 132.05395508 64.11352539 C131.32857764 64.11591374 130.60320021 64.1183021 129.85584164 64.12076283 C112.19484168 64.17993347 94.5339878 64.25549676 76.87313747 64.3492403 C68.33242973 64.39418015 59.79176352 64.43359898 51.25097656 64.45996094 C43.80565709 64.4829557 36.36046923 64.51637022 28.91525418 64.56222695 C24.97411184 64.5861393 21.03309971 64.60488107 17.09188652 64.6111393 C13.37934346 64.61719921 9.66713345 64.63723142 5.95471382 64.6678009 C3.94864912 64.68073419 1.94250655 64.67901367 -0.06359863 64.67680359 C-8.34817846 64.76304609 -13.23197478 65.68509491 -20.19604492 70.23852539 C-25.3135982 75.58869473 -26.38727209 83.30905733 -27.75854492 90.42602539 C-27.92032227 91.24651367 -28.08209961 92.06700195 -28.2487793 92.91235352 C-30.13870213 102.73855745 -31.71638776 112.62059925 -33.33670044 122.49398804 C-35.18081507 133.72466492 -37.15873365 144.9052656 -39.51245117 156.04223633 C-40.35349811 160.0599403 -41.14479863 164.08773365 -41.94604492 168.11352539 C-42.35210259 170.14481385 -42.75836145 172.17606209 -43.16479492 174.20727539 C-43.37491211 175.25786133 -43.5850293 176.30844727 -43.80151367 177.39086914 C-44.44344076 180.60050456 -45.08536784 183.81013997 -45.72729492 187.01977539 C-45.93128906 188.04828613 -46.1352832 189.07679688 -46.34545898 190.13647461 C-46.72985558 192.04189416 -47.12650253 193.94490876 -47.53881836 195.84448242 C-48.64049695 200.98859483 -49.21793702 205.7234764 -49.19604492 210.98852539 C-49.20120117 212.24407227 -49.20635742 213.49961914 -49.21166992 214.79321289 C-48.95596641 217.98950674 -48.66038153 219.48220392 -46.94604492 222.11352539 C-39.41465278 224.58253002 -31.84426873 224.41916547 -23.98095703 224.43237305 C-22.59047879 224.44168749 -21.20000607 224.45185839 -19.80953979 224.46281433 C-16.06020395 224.48995767 -12.31090534 224.50521687 -8.56149745 224.51824236 C-4.63369303 224.53394198 -0.70596388 224.56071018 3.2217865 224.58627319 C10.64818664 224.63294061 18.07460113 224.66974272 25.50107235 224.70294607 C33.96065893 224.74125283 42.42016968 224.79064041 50.8796922 224.84093022 C68.27105819 224.94407091 85.66246818 225.03338903 103.05395508 225.11352539 C98.31783858 238.9560199 93.04139464 252.56588599 87.67895508 266.17602539 C86.83884432 268.31459239 85.99899886 270.45326363 85.15942383 272.59204102 C83.12731674 277.7670718 81.09196827 282.94081788 79.05395508 288.11352539 C59.36433697 288.20723851 39.67476453 288.27763619 19.98496914 288.32077408 C10.84130302 288.34134197 1.69777601 288.36935127 -7.44580078 288.4152832 C-15.42142666 288.45532871 -23.39695173 288.48100008 -31.37267536 288.48987937 C-35.59028327 288.49506434 -39.80760295 288.50712831 -44.02511787 288.53644562 C-48.00685395 288.56389581 -51.98818713 288.57191169 -55.97000885 288.56595612 C-57.41986988 288.56704329 -58.86974649 288.57481921 -60.31952477 288.59034729 C-70.6308062 288.695232 -79.17093194 287.10378022 -88.94604492 284.11352539 C-91.19520956 283.50625628 -93.44508885 282.9016202 -95.69604492 282.30102539 C-109.31236123 278.05850319 -119.34990256 268.92821506 -126.94604492 257.11352539 C-137.05327445 236.82600203 -134.72532668 214.55334588 -130.94604492 192.98852539 C-130.62819867 191.11038979 -130.31107623 189.23213157 -129.99462891 187.35375977 C-127.41502718 172.20037613 -124.50907092 157.11166235 -121.49688721 142.03912354 C-119.88503337 133.96900662 -118.33752806 125.89124386 -116.87182617 117.79321289 C-107.49960991 66.05043418 -107.49960991 66.05043418 -99.94604492 51.11352539 C-99.39561523 50.00235352 -98.84518555 48.89118164 -98.27807617 47.74633789 C-93.51010637 38.57134042 -87.29312071 31.33234799 -79.94604492 24.11352539 C-79.25639648 23.42516602 -78.56674805 22.73680664 -77.85620117 22.02758789 C-56.65235667 2.21342453 -27.56704521 -0.06514555 0 0 Z " fill="#00BA9D" transform="translate(990.946044921875,150.886474609375)"/>
<path d="M0 0 C78.54 0 157.08 0 238 0 C231.1105575 19.52008707 231.1105575 19.52008707 228.16796875 27.0859375 C227.84588943 27.92041412 227.52381012 28.75489075 227.19197083 29.61465454 C226.19277634 32.20233117 225.19032507 34.7887285 224.1875 37.375 C223.16746971 40.01150468 222.14814018 42.64827804 221.12947083 45.28530884 C220.50270265 46.90722927 219.87504982 48.52880819 219.24638367 50.1499939 C218.1101836 53.0857121 216.99562753 56.0131174 216 59 C192.57 59 169.14 59 145 59 C144.34 64.28 143.68 69.56 143 75 C142.41721562 78.59297745 141.8152533 82.16524466 141.15234375 85.7421875 C140.89398994 87.16718567 140.89398994 87.16718567 140.63041687 88.62097168 C140.07013288 91.70639555 139.50382803 94.79068035 138.9375 97.875 C138.53453943 100.08797075 138.13204289 102.30102605 137.72998047 104.51416016 C136.89804343 109.09178706 136.06414129 113.6690497 135.22900391 118.24609375 C134.0730155 124.58925028 132.93018055 130.93470317 131.79296875 137.28125 C131.61439331 138.27758957 131.43581787 139.27392914 131.25183105 140.30046082 C130.98384705 141.79564995 130.98384705 141.79564995 130.71044922 143.32104492 C126.52715832 166.66105479 122.26750027 189.98687602 117.98095703 213.30810547 C114.63136329 231.53475756 111.31510465 249.7669244 108 268 C83.58 268 59.16 268 34 268 C39.59161119 234.45033283 39.59161119 234.45033283 42.42260742 219.37234497 C46.80862384 195.96959911 50.91185423 172.51862614 55 149.0625 C56.19998903 142.1782926 57.40023371 135.29413 58.6015625 128.41015625 C58.74725866 127.57522644 58.89295483 126.74029663 59.04306602 125.88006592 C62.93784368 103.5700544 66.96093967 81.28447077 71 59 C43.94 59 16.88 59 -11 59 C-9.87475791 47.74757908 -9.87475791 47.74757908 -8.73046875 42.12890625 C-8.48103516 40.89333984 -8.23160156 39.65777344 -7.97460938 38.38476562 C-7.71486328 37.12341797 -7.45511719 35.86207031 -7.1875 34.5625 C-6.93935547 33.33595703 -6.69121094 32.10941406 -6.43554688 30.84570312 C-4.34490363 20.55207797 -2.16394757 10.27875097 0 0 Z " fill="#00B398" transform="translate(1049,476)"/>
<path d="M0 0 C1.39919678 0.30309082 1.39919678 0.30309082 2.82666016 0.61230469 C9.66181066 2.11240368 16.24421119 3.78358378 22.55078125 6.8828125 C25.18777852 8.08565336 27.8798486 9.04859666 30.61157227 10.01269531 C39.38739607 13.1295938 47.03973043 17.17500225 55 22 C57.32644355 23.34581886 59.66243521 24.67351305 62 26 C62 26.66 62 27.32 62 28 C62.7321875 28.26941406 63.464375 28.53882813 64.21875 28.81640625 C73.96548604 32.96424476 82.06043556 41.13890162 90 48 C91.04607422 48.85851562 91.04607422 48.85851562 92.11328125 49.734375 C128.86007242 80.26489957 153.42010458 128.19580594 164 174 C164.21640137 174.9060498 164.43280273 175.81209961 164.65576172 176.74560547 C165.34915618 179.66023786 166.0218084 182.57892376 166.6875 185.5 C166.89020508 186.36439697 167.09291016 187.22879395 167.30175781 188.11938477 C170.74816588 203.80226756 171.41090827 219.8082394 171.375 235.8125 C171.37478851 236.6947525 171.37457703 237.577005 171.37435913 238.48599243 C171.2901679 274.00232442 164.33267863 309.06044103 151 342 C142.09 342 133.18 342 124 342 C125.29367681 338.11896957 126.58077908 334.4903506 128.171875 330.75390625 C137.28755015 308.9681163 142.71150878 287.36301222 146 264 C146.1045752 263.30583984 146.20915039 262.61167969 146.31689453 261.89648438 C147.36220957 254.06503646 147.24292403 246.13689364 147.25 238.25 C147.25100708 237.47099335 147.25201416 236.69198669 147.25305176 235.88937378 C147.24282981 224.17637482 146.67592083 212.84064311 144.43994141 201.3125 C143.99907614 198.99514387 143.62562566 196.67431315 143.26171875 194.34375 C137.47182066 159.49322408 122.19662254 126.0777447 101 98 C100.36449219 97.13890625 99.72898437 96.2778125 99.07421875 95.390625 C93.88829441 88.69776874 87.95722066 82.75288652 82 76.75 C80.73567139 75.47165283 80.73567139 75.47165283 79.44580078 74.16748047 C72.10363162 66.86247237 64.25591476 60.64102442 55.625 54.9375 C54.97708496 54.50904785 54.32916992 54.0805957 53.66162109 53.63916016 C48.25970515 50.10513402 42.7704829 46.900467 37 44 C36.4215332 43.69884277 35.84306641 43.39768555 35.24707031 43.08740234 C22.96947002 36.72721322 10.28362631 32.72538774 -3 29 C-4.48323709 28.57087955 -5.96632584 28.14124581 -7.44921875 27.7109375 C-19.19036663 24.39222822 -30.26119859 23.80632853 -42.4375 23.8125 C-44.4165332 23.8115332 -44.4165332 23.8115332 -46.43554688 23.81054688 C-55.48897626 23.85919745 -64.34144424 24.3757294 -73.3125 25.5625 C-76.58961689 25.95131048 -79.70536422 26.08236589 -83 26 C-83 26.66 -83 27.32 -83 28 C-83.55236328 28.12004395 -84.10472656 28.24008789 -84.67382812 28.36376953 C-114.02459261 34.82604431 -139.15946666 46.18610128 -162 66 C-162.80566406 66.69480469 -163.61132812 67.38960938 -164.44140625 68.10546875 C-167.00252889 70.36238099 -169.50857249 72.66635067 -172 75 C-172.49226074 75.45826172 -172.98452148 75.91652344 -173.49169922 76.38867188 C-216.91997198 117.15088987 -238.2523611 177.32024282 -240.21875 235.8203125 C-241.58665895 297.62398756 -220.34913197 357.31671026 -177.70361328 402.22167969 C-166.31387259 414.1108845 -155.17357468 424.4710824 -141 433 C-140.11997314 433.53028809 -140.11997314 433.53028809 -139.22216797 434.07128906 C-129.84419063 439.671316 -120.31095823 444.25472512 -110.11572266 448.16894531 C-108.62665334 448.75385091 -107.14779779 449.36510156 -105.67724609 449.99511719 C-99.35275641 452.67062126 -93.10867 454.31765232 -86.375 455.625 C-85.30773682 455.83664795 -84.24047363 456.0482959 -83.14086914 456.26635742 C-71.83767904 458.39714415 -60.47182001 459.33795552 -49 460 C-50.73616929 463.69247839 -52.89450174 466.2559743 -55.6875 469.25 C-59.39864808 473.26190683 -63.05010326 477.3079319 -66.625 481.44140625 C-67.7065416 482.66735823 -68.843996 483.843996 -70 485 C-82.69292996 485.40882136 -95.31205521 481.59568675 -107.375 478.0625 C-108.62325562 477.70152222 -108.62325562 477.70152222 -109.89672852 477.33325195 C-114.56125495 475.92656412 -118.81169057 474.23236397 -123.12353516 471.96630859 C-124.87599512 471.06385784 -126.68747211 470.27868101 -128.5 469.50390625 C-158.52892881 456.6008509 -186.47312399 434.37640273 -207 409 C-207.6194751 408.23453857 -207.6194751 408.23453857 -208.25146484 407.45361328 C-217.40413576 396.01680736 -224.80414497 383.73426479 -232 371 C-232.42410156 370.26700684 -232.84820312 369.53401367 -233.28515625 368.77880859 C-244.10394709 350.05569491 -251.28454162 329.42754302 -256.39599609 308.47412109 C-256.95827519 306.17091319 -257.5491547 303.87685229 -258.14453125 301.58203125 C-273.7598219 239.27060432 -262.37029075 169.02586586 -232 113 C-231.60087402 112.26217285 -231.20174805 111.5243457 -230.79052734 110.76416016 C-224.08621966 98.50492781 -216.52593083 87.06713113 -208 76 C-207.56284668 75.43152344 -207.12569336 74.86304687 -206.67529297 74.27734375 C-194.61603509 58.83694121 -180.14763363 44.12932142 -164 33 C-163.43571289 32.60200195 -162.87142578 32.20400391 -162.29003906 31.79394531 C-134.74216004 12.39721953 -106.75558646 1.44276396 -73.56689453 -3.59326172 C-71.53579408 -3.91510054 -69.5136314 -4.29329681 -67.49609375 -4.69140625 C-44.72533597 -9.12163531 -22.24836301 -4.92021995 0 0 Z " fill="#00BB9D" transform="translate(290,34)"/>
<path d="M0 0 C7.85925311 -0.04667197 15.71847277 -0.0820441 23.57783031 -0.10362434 C27.22861368 -0.11399018 30.87930112 -0.12801487 34.5300293 -0.15087891 C38.06379937 -0.17286787 41.59747812 -0.1846225 45.13131142 -0.18975449 C47.11232647 -0.19516065 49.09330561 -0.21073006 51.07426453 -0.22659302 C63.63850947 -0.22812327 75.56953577 0.2912899 86 8 C91.80912492 13.97694408 92.25964892 19.71297022 92.24658203 27.71923828 C91.74653258 59.49635329 87.80506602 115.44363563 66 140 C56.18405958 147.4363185 44.58004177 151.13731526 32.35205078 151.11352539 C31.05115509 151.11344986 29.7502594 151.11337433 28.40994263 151.11329651 C27.00506552 151.10819101 25.60018881 151.10297504 24.1953125 151.09765625 C22.74657236 151.09578923 21.29783158 151.09436667 19.84909058 151.09336853 C16.05153637 151.08956573 12.25402092 151.07975474 8.45648193 151.06866455 C4.57515995 151.05840215 0.69383166 151.05386059 -3.1875 151.04882812 C-10.79168426 151.0381303 -18.39583668 151.02108098 -26 151 C-25.84826296 149.26379128 -25.69475849 147.52773698 -25.54052734 145.79174805 C-25.41259293 144.34157539 -25.41259293 144.34157539 -25.28207397 142.86210632 C-24.88351617 138.81807915 -24.28158079 134.82150506 -23.625 130.8125 C-23.49270996 129.99281738 -23.36041992 129.17313477 -23.22412109 128.32861328 C-21.08493119 115.23210191 -18.45421867 102.2355093 -15.84301758 89.22705078 C-13.09716472 75.53006616 -10.60415215 61.84023351 -8.55883789 48.01879883 C-7.36677002 40.10470502 -5.98135285 32.23963697 -4.5 24.375 C-4.07275406 22.09117625 -3.64566886 19.80732242 -3.21875 17.5234375 C-3.03248047 16.53263184 -2.84621094 15.54182617 -2.65429688 14.52099609 C-1.75531062 9.68324242 -0.87774484 4.84164649 0 0 Z " fill="#040505" transform="translate(612,535)"/>
<path d="M0 0 C2.21250432 1.5042763 4.24683411 3.00606622 6.3125 4.6875 C7.47234735 5.60716054 8.63250235 6.52643322 9.79296875 7.4453125 C10.34774902 7.88907227 10.9025293 8.33283203 11.47412109 8.79003906 C13.32607545 10.25856479 15.21876191 11.6653814 17.125 13.0625 C25.96578075 19.70704469 33.86033336 26.52725377 41 35 C41.72832031 35.84175781 42.45664062 36.68351562 43.20703125 37.55078125 C45.54588569 40.31562669 47.78401105 43.13569692 50 46 C50.46744629 46.59006836 50.93489258 47.18013672 51.41650391 47.78808594 C52.89993895 49.68660835 54.32832679 51.61742715 55.75 53.5625 C56.21720459 54.15119873 56.68440918 54.73989746 57.16577148 55.34643555 C59.04448444 58.0124187 60.18269232 59.88095219 59.64164734 63.19502258 C59.25188469 64.37719612 59.25188469 64.37719612 58.85424805 65.58325195 C58.56446075 66.46554977 58.27467346 67.3478476 57.97610474 68.25688171 C56.38584251 72.72594865 54.68287027 77.13941209 52.91015625 81.5390625 C52.52435898 82.50476166 52.13856171 83.47046082 51.74107361 84.46542358 C50.93046514 86.49145834 50.11773846 88.5166468 49.30297852 90.54101562 C48.06395518 93.62138225 46.83327041 96.70498567 45.60351562 99.7890625 C44.81039017 101.76842732 44.01678654 103.74760061 43.22265625 105.7265625 C42.85898453 106.63822174 42.49531281 107.54988098 42.12062073 108.48916626 C41.10547235 111.00409661 40.05797806 113.50284135 39 116 C38.69511658 116.77183121 38.39023315 117.54366241 38.07611084 118.33888245 C36.48263199 122.03278753 35.72526408 123.63617332 32.03564453 125.48706055 C30.28936768 125.83957886 30.28936768 125.83957886 28.5078125 126.19921875 C27.8595047 126.34163498 27.2111969 126.48405121 26.54324341 126.63078308 C25.12419694 126.94210524 23.70221014 127.24024759 22.2779541 127.52679443 C19.06811952 128.19358205 15.89333804 128.98805731 12.71087646 129.77371216 C9.30662554 130.60866522 5.8939487 131.40566233 2.48046875 132.2019043 C0.72452358 132.61341281 -1.03034772 133.02952744 -2.78417969 133.44995117 C-5.35649009 134.06644158 -7.93162342 134.66948388 -10.5078125 135.26953125 C-11.67813522 135.55374687 -11.67813522 135.55374687 -12.87210083 135.84370422 C-16.87002686 136.75769896 -20.07091635 137.36877737 -24 136 C-26.17578125 133.99609375 -26.17578125 133.99609375 -28.3125 131.4375 C-31.69117234 127.49851716 -35.1486131 123.78111537 -38.8828125 120.1796875 C-40.71761041 118.29072582 -42.41315752 116.3574206 -44.12109375 114.35546875 C-46.88474151 111.16902413 -49.78599846 108.21787125 -52.83984375 105.30859375 C-53.67451172 104.50873047 -54.50917969 103.70886719 -55.36914062 102.88476562 C-57.0977017 101.23770325 -58.83756797 99.60243325 -60.58789062 97.97851562 C-66.83782458 91.93349754 -66.83782458 91.93349754 -67.640625 87.3125 C-67.42921875 86.219375 -67.2178125 85.12625 -67 84 C-66.84144531 82.97003906 -66.68289062 81.94007813 -66.51953125 80.87890625 C-66.28621094 79.78449219 -66.05289063 78.69007813 -65.8125 77.5625 C-65.68157959 76.93835205 -65.55065918 76.3142041 -65.41577148 75.67114258 C-65.11781389 74.25251371 -64.81692871 72.8344977 -64.51367188 71.41699219 C-63.72593252 67.71042393 -62.96737262 63.99790427 -62.20458984 60.28613281 C-61.56210258 57.18558213 -60.90256687 54.08897025 -60.2421875 50.9921875 C-59.44224646 47.21515878 -58.71539216 43.43920969 -58.0703125 39.6328125 C-56.05460462 28.25685756 -56.05460462 28.25685756 -53.2890625 24.9609375 C-51.3125 23.6875 -51.3125 23.6875 -49.29394531 22.90771484 C-47.00064305 22.00025446 -44.96037381 20.925595 -42.8203125 19.703125 C-38.11921892 17.05269833 -33.35032049 14.55175698 -28.5625 12.0625 C-22.56691065 8.92980602 -16.65179842 5.7408687 -10.91015625 2.15625 C-10.27980469 1.7746875 -9.64945312 1.393125 -9 1 C-8.03900391 0.39671875 -8.03900391 0.39671875 -7.05859375 -0.21875 C-4.20552307 -1.30150927 -2.88534626 -1.00156037 0 0 Z " fill="#00BE9F" transform="translate(320,113)"/>
<path d="M0 0 C2.10540728 2.06129959 3.91004527 4.0366249 5.75 6.3125 C6.27803223 6.94768555 6.80606445 7.58287109 7.35009766 8.23730469 C11.21511043 12.92593189 14.89825879 17.74021776 18.49609375 22.63671875 C22.3225784 27.82301521 26.33087353 32.87232202 30.30419922 37.94628906 C30.88314941 38.68717773 31.46209961 39.42806641 32.05859375 40.19140625 C32.57736084 40.85342041 33.09612793 41.51543457 33.63061523 42.19750977 C37.08760272 46.7478643 37.16685741 48.67342317 36.48535156 54.15527344 C35.64400879 59.08652396 34.30764369 63.83664913 32.875 68.625 C32.55934082 69.68332031 32.24368164 70.74164063 31.91845703 71.83203125 C26.58170704 89.27940505 18.2870875 105.3132997 9 121 C8.58331055 121.73557129 8.16662109 122.47114258 7.73730469 123.22900391 C5.18323645 125.83260298 2.88593947 125.8961796 -0.6875 126.4140625 C-1.67411621 126.56492813 -1.67411621 126.56492813 -2.68066406 126.71884155 C-4.78506789 127.03714507 -6.89198815 127.33164427 -9 127.625 C-10.38695838 127.8291074 -11.77368134 128.03482135 -13.16015625 128.2421875 C-15.20193803 128.54727802 -17.24382749 128.85067005 -19.28703308 129.14608765 C-23.14418772 129.70589755 -26.97301398 130.34509751 -30.80078125 131.078125 C-36.23863612 132.09727735 -41.67876993 132.64869591 -47.1875 133.125 C-48.13947266 133.21136719 -49.09144531 133.29773438 -50.07226562 133.38671875 C-52.38115328 133.59556286 -54.69033735 133.79994288 -57 134 C-57.30067383 133.41847168 -57.60134766 132.83694336 -57.91113281 132.23779297 C-64.11004739 120.26400144 -70.38318385 108.34022929 -76.90136719 96.53662109 C-77.82480189 94.85925097 -78.74186003 93.17835127 -79.65185547 91.49365234 C-80.58279981 89.77169191 -81.5308841 88.05892674 -82.49267578 86.35400391 C-85.97701498 79.92423984 -85.97701498 79.92423984 -86.07421875 76.015625 C-84.47325304 71.52127761 -82.69867789 67.13210364 -80.8125 62.75 C-79.91303546 60.62803922 -79.0146665 58.50561383 -78.1171875 56.3828125 C-77.37807129 54.63919434 -77.37807129 54.63919434 -76.62402344 52.86035156 C-73.50559429 45.47206587 -70.48156298 38.04413881 -67.4375 30.625 C-66.22879671 27.67930354 -65.01906629 24.73403231 -63.80859375 21.7890625 C-63.53923004 21.13179169 -63.26986633 20.47452087 -62.99234009 19.79733276 C-62.0478799 17.49998785 -61.11128059 15.22256117 -60 13 C-58.02734296 12.27493112 -56.01949688 11.64450778 -54 11.0625 C-50.21538796 9.96014248 -46.46556769 8.82304342 -42.7421875 7.53125 C-37.61284002 5.80680292 -32.40483173 4.60465945 -27.125 3.4375 C-26.20847656 3.22931641 -25.29195313 3.02113281 -24.34765625 2.80664062 C-21.56915305 2.18333365 -18.78673059 1.58537832 -16 1 C-15.01999023 0.79133301 -14.03998047 0.58266602 -13.03027344 0.36767578 C-11.5882959 0.07932861 -11.5882959 0.07932861 -10.1171875 -0.21484375 C-9.25464355 -0.39007568 -8.39209961 -0.56530762 -7.50341797 -0.74584961 C-4.70490898 -1.02995804 -2.68846055 -0.82220181 0 0 Z " fill="#00BA9C" transform="translate(361,264)"/>
<path d="M0 0 C2.45444327 1.19377534 4.33686213 2.71020359 6.42578125 4.46875 C9.9725839 7.39148181 13.55942026 10.17441222 17.30078125 12.84375 C21.99410143 16.22715333 26.51088864 19.76173188 30.93359375 23.4921875 C33.08506743 25.26500181 35.23433227 26.92803981 37.48046875 28.5703125 C38.69150592 29.49466109 39.90244499 30.41913824 41.11328125 31.34375 C41.69899902 31.74956299 42.2847168 32.15537598 42.88818359 32.57348633 C44.50390625 33.83984375 44.50390625 33.83984375 46.86328125 36.90625 C47.12760511 43.66126874 45.22735301 50.68435351 43.83203125 57.26171875 C43.63605347 58.20759354 43.44007568 59.15346832 43.23815918 60.12800598 C42.6180238 63.11761591 41.99108901 66.10574272 41.36328125 69.09375 C40.73652528 72.09267358 40.1112751 75.09189626 39.48840332 78.09162903 C39.10246895 79.94866547 38.71417284 81.80521322 38.32312012 83.66117859 C37.54241732 87.40443158 36.81024382 91.10529558 36.35327148 94.90283203 C35.86328125 97.90625 35.86328125 97.90625 33.9921875 99.91796875 C33.14527344 100.47097656 32.29835938 101.02398437 31.42578125 101.59375 C30.42933594 102.26148438 29.43289062 102.92921875 28.40625 103.6171875 C27.84470215 103.9790918 27.2831543 104.34099609 26.70458984 104.71386719 C24.69414058 106.01578103 22.70988802 107.35245955 20.7265625 108.6953125 C11.87141749 114.67373361 2.92521204 120.51481653 -6.07421875 126.2734375 C-8.79781917 128.02190565 -11.47755589 129.81916992 -14.13671875 131.6640625 C-14.7699707 132.09501221 -15.40322266 132.52596191 -16.05566406 132.9699707 C-17.24230374 133.77925896 -18.41953787 134.60258505 -19.58496094 135.44213867 C-22.06386235 137.11278497 -23.50792423 138.01363035 -26.515625 137.5 C-30.26657925 135.21924093 -33.79711577 132.70497962 -37.32421875 130.09375 C-38.924355 128.92300735 -40.52461934 127.75243977 -42.125 126.58203125 C-42.94693848 125.9782666 -43.76887695 125.37450195 -44.61572266 124.75244141 C-48.73092625 121.73877013 -52.87253659 118.76185216 -57.01171875 115.78125 C-58.48864864 114.71665534 -59.96523548 113.65158452 -61.44140625 112.5859375 C-62.05999512 112.13976074 -62.67858398 111.69358398 -63.31591797 111.23388672 C-63.91678223 110.7957666 -64.51764648 110.35764648 -65.13671875 109.90625 C-65.86600586 109.50237061 -66.59529297 109.09849121 -67.34667969 108.68237305 C-69.13671875 106.90625 -69.13671875 106.90625 -69.57568359 103.72631836 C-69.54168457 102.43346924 -69.50768555 101.14062012 -69.47265625 99.80859375 C-69.45697601 99.102827 -69.44129578 98.39706024 -69.42514038 97.66990662 C-69.21691271 90.32222069 -68.63767144 82.99725312 -67.96484375 75.67944336 C-67.76217649 73.47373173 -67.56967212 71.26731664 -67.37890625 69.06054688 C-66.72062164 61.56890283 -65.96436476 54.09155839 -65.09765625 46.62109375 C-65.01697906 45.9200502 -64.93630188 45.21900665 -64.85317993 44.49671936 C-63.64374359 34.34746949 -63.64374359 34.34746949 -61.30078125 32.30859375 C-60.46289062 31.82519531 -59.625 31.34179688 -58.76171875 30.84375 C-57.76785156 30.25335938 -56.77398437 29.66296875 -55.75 29.0546875 C-54.89849365 28.55533691 -54.89849365 28.55533691 -54.02978516 28.04589844 C-51.9029179 26.76549911 -49.82306057 25.4241551 -47.7421875 24.0703125 C-38.45081194 18.04004641 -29.12225671 12.54186787 -19.09375 7.83398438 C-17.03259648 6.85689064 -14.99091798 5.84518668 -12.94921875 4.828125 C-11.59546982 4.16581214 -10.24131716 3.50432372 -8.88671875 2.84375 C-8.26635742 2.53203857 -7.64599609 2.22032715 -7.00683594 1.89916992 C-4.60574589 0.75289246 -2.68995335 -0.11802355 0 0 Z " fill="#00C0A0" transform="translate(195.13671875,100.09375)"/>
<path d="M0 0 C1.64741708 0.10990599 3.29342244 0.2426388 4.9375 0.39453125 C6.21548462 0.48927734 6.21548462 0.48927734 7.51928711 0.5859375 C9.99401026 0.77396851 12.46528943 0.9887883 14.9375 1.20703125 C16.73380859 1.34044922 16.73380859 1.34044922 18.56640625 1.4765625 C25.57829779 2.02743014 25.57829779 2.02743014 27.9375 3.20703125 C29.63862614 3.2284696 31.34022127 3.24299942 33.04127502 3.21643066 C57.46300411 2.88112817 57.46300411 2.88112817 64.50732422 8.1171875 C68.55633673 13.11663814 70.61391515 18.97965958 72.71386719 24.99902344 C74.86354514 30.6348511 77.91906756 35.77531985 80.875 41.01953125 C82.42284893 43.87046279 83.9602997 46.72677183 85.49560547 49.58447266 C86.45401546 51.32765588 87.44275329 53.05451633 88.46142578 54.76318359 C89.16307861 55.94775146 89.16307861 55.94775146 89.87890625 57.15625 C90.29986572 57.84420654 90.7208252 58.53216309 91.15454102 59.2409668 C92.1436322 61.72464355 91.89561226 62.73810805 90.9375 65.20703125 C89.92871094 67.07202148 89.92871094 67.07202148 88.671875 69.015625 C88.20007813 69.75272705 87.72828125 70.4898291 87.2421875 71.24926758 C86.72914063 72.03970459 86.21609375 72.8301416 85.6875 73.64453125 C84.59797525 75.34442239 83.50947183 77.04496848 82.421875 78.74609375 C81.56819336 80.07882324 81.56819336 80.07882324 80.69726562 81.43847656 C77.17426636 86.981042 73.74460211 92.58177515 70.30371094 98.17553711 C69.29590774 99.80997092 68.27434892 101.43603276 67.23681641 103.05175781 C65.76580123 105.37045089 65.76580123 105.37045089 64.4609375 108.7734375 C60.62031374 112.47732079 56.86461641 111.93183261 51.68017578 111.9387207 C50.30755664 111.90557688 48.93499525 111.86996049 47.5625 111.83203125 C46.1547866 111.8113434 44.74707174 111.79075495 43.33935547 111.77026367 C31.60497687 111.52211913 20.32160691 110.0685849 8.9375 107.20703125 C8.14649902 107.00916016 7.35549805 106.81128906 6.54052734 106.60742188 C2.34431165 105.52576961 -1.86921087 104.43483868 -5.94604492 102.95996094 C-8.13184772 102.14868344 -8.13184772 102.14868344 -10.7199707 101.50878906 C-16.46635495 99.61158894 -19.45611272 97.37531814 -22.24848938 91.89900208 C-23.91806272 88.25796132 -25.40815944 84.55838493 -26.875 80.83203125 C-27.49330704 79.3423185 -28.11503319 77.85402009 -28.74023438 76.3671875 C-30.26636216 72.71389895 -31.73994844 69.04203561 -33.1987915 65.3614502 C-34.06092329 63.21096416 -34.94891767 61.07297054 -35.84521484 58.93652344 C-36.12620529 58.25882904 -36.40719574 57.58113464 -36.69670105 56.88290405 C-37.46140618 55.03926789 -38.23184551 53.19801313 -39.00268555 51.35693359 C-40.0224895 48.32594751 -40.50148256 46.35838273 -40.0625 43.20703125 C-38.99609375 41.42114258 -38.99609375 41.42114258 -37.5 39.7890625 C-36.954646 39.1798999 -36.40929199 38.5707373 -35.84741211 37.94311523 C-35.25839111 37.30833252 -34.66937012 36.6735498 -34.0625 36.01953125 C-32.85403621 34.67446276 -31.6470012 33.32810921 -30.44140625 31.98046875 C-29.85504395 31.33045898 -29.26868164 30.68044922 -28.66455078 30.01074219 C-26.68940917 27.78697714 -24.83254155 25.48676058 -23 23.14453125 C-19.20194559 18.31580823 -15.2086316 13.66814662 -11.18530273 9.02709961 C-10.69489502 8.45999268 -10.2044873 7.89288574 -9.69921875 7.30859375 C-9.22790527 6.77419678 -8.7565918 6.2397998 -8.27099609 5.68920898 C-6.92291207 4.13323145 -6.92291207 4.13323145 -5.76953125 1.78125 C-3.63415455 -0.18798755 -2.85022365 -0.02492816 0 0 Z " fill="#00BA9C" transform="translate(193.0625,347.79296875)"/>
<path d="M0 0 C8.68460816 6.52269506 14.08476765 14.52165316 15.8359375 25.37890625 C16.88959481 34.37817605 14.25758837 43.31077002 9.1484375 50.75390625 C5.17112654 55.60157025 -0.75944142 60.57549972 -7.1640625 61.37890625 C-8.33453125 61.21390625 -9.505 61.04890625 -10.7109375 60.87890625 C-16.33825422 60.11295468 -21.52626776 59.57524669 -26.40917969 62.9140625 C-30.86235059 66.91932842 -34.66117374 71.46675556 -38.38134766 76.14794922 C-42.8445142 81.73332527 -47.69331709 87.00071078 -52.5390625 92.25390625 C-55.93528385 95.94362821 -59.31522577 99.64597355 -62.6640625 103.37890625 C-66.01291404 107.11185546 -69.39376772 110.8133183 -72.7890625 114.50390625 C-76.36740391 118.39558968 -79.89237863 122.32571694 -83.35546875 126.3203125 C-86.43394561 129.82432396 -89.59398824 133.25433323 -92.73828125 136.69921875 C-95.36866389 139.60492325 -97.94599067 142.5511309 -100.49609375 145.52734375 C-102.1640625 147.37890625 -102.1640625 147.37890625 -104.86328125 149.59375 C-107.90047156 153.2703488 -107.53797985 156.06448112 -107.1640625 160.56640625 C-106.82800974 169.12661966 -108.1063349 174.92219707 -114.03125 181.4296875 C-118.04667006 185.20293242 -121.89942546 187.58716003 -127.1640625 189.37890625 C-129.71240072 189.24267433 -132.25687029 189.00856459 -134.7890625 188.69140625 C-138.61787137 188.44873212 -141.76894458 188.46961084 -145.05419922 190.61083984 C-148.77544331 193.9146724 -151.85314327 197.74169479 -154.8671875 201.6875 C-156.39229269 203.67656792 -158.03781592 205.5277802 -159.7265625 207.37890625 C-161.78553984 209.75816895 -163.82419294 212.15448549 -165.86328125 214.55078125 C-168.43208974 217.56850366 -171.01664439 220.57221728 -173.60888672 223.56982422 C-174.63527426 224.76378523 -175.65529579 225.96325224 -176.66845703 227.16845703 C-178.08874814 228.8570306 -179.52987969 230.52543679 -180.9765625 232.19140625 C-181.80800781 233.16722656 -182.63945312 234.14304687 -183.49609375 235.1484375 C-186.78278166 237.89616633 -188.91721612 238.31930139 -193.1640625 238.37890625 C-195.7890625 236.31640625 -195.7890625 236.31640625 -198.1640625 233.37890625 C-198.63199219 232.90839844 -199.09992188 232.43789063 -199.58203125 231.953125 C-202.10917582 229.32687672 -203.1289187 227.65842963 -203.5859375 224.0234375 C-203.06285997 219.50462888 -201.78040626 218.12972496 -198.6015625 214.94140625 C-197.75464844 214.07644531 -196.90773437 213.21148438 -196.03515625 212.3203125 C-195.57753906 211.85979492 -195.11992187 211.39927734 -194.6484375 210.92480469 C-192.9764866 209.18355582 -191.39666703 207.37951245 -189.81640625 205.5546875 C-186.08944719 201.25856441 -182.20521396 197.12721405 -178.2890625 193.00390625 C-173.0705751 187.48764925 -167.90164933 181.94349336 -162.86328125 176.26171875 C-161.1640625 174.37890625 -161.1640625 174.37890625 -159.4140625 172.78125 C-159.0015625 172.31847656 -158.5890625 171.85570312 -158.1640625 171.37890625 C-158.40951084 169.36622987 -158.76641987 167.36711938 -159.1640625 165.37890625 C-159.96316398 155.53465616 -158.48960261 147.68151245 -152.0390625 140.00390625 C-146.79808514 134.60153737 -141.56817244 131.25309186 -133.9140625 131.06640625 C-130.1640625 131.37890625 -130.1640625 131.37890625 -127.6015625 132.31640625 C-125.15298738 132.63147989 -125.15298738 132.63147989 -123.55078125 131.16796875 C-121.65642932 129.31141985 -119.90286448 127.38173456 -118.1640625 125.37890625 C-117.64199219 124.78722656 -117.11992187 124.19554687 -116.58203125 123.5859375 C-115.46214469 122.30801342 -114.34799428 121.02504962 -113.23828125 119.73828125 C-110.63777053 116.78026152 -107.96672024 113.89201115 -105.2890625 111.00390625 C-100.19612985 105.50736184 -95.16330625 99.9609398 -90.1640625 94.37890625 C-88.66449631 92.71184925 -87.16449197 91.0451863 -85.6640625 89.37890625 C-84.92414063 88.55648437 -84.18421875 87.7340625 -83.421875 86.88671875 C-81.89698006 85.19297731 -80.37090848 83.50029456 -78.84375 81.80859375 C-73.24393137 75.60133717 -67.71129481 69.34345782 -62.26171875 63.00390625 C-61.72925537 62.38692871 -61.19679199 61.76995117 -60.64819336 61.13427734 C-59.52769239 59.83196294 -58.41266048 58.52492424 -57.30297852 57.21337891 C-54.55992106 54.00174381 -51.80230451 50.97446204 -48.65625 48.15234375 C-42.01981227 42.17626008 -42.01981227 42.17626008 -39.5234375 33.8828125 C-39.49072445 30.01349696 -39.77650033 26.1742682 -40.07324219 22.31835938 C-40.39090482 15.53472507 -37.2193955 11.10761062 -33.0390625 6.06640625 C-24.50012653 -2.76082177 -11.29902968 -6.84139561 0 0 Z " fill="#00B599" transform="translate(416.1640625,402.62109375)"/>
<path d="M0 0 C3.45445261 1.26824309 6.27154707 2.72151425 9.25 4.875 C10.11882812 5.49761719 10.98765625 6.12023437 11.8828125 6.76171875 C12.91148438 7.50035156 13.94015625 8.23898438 15 9 C16.28791924 9.90397478 17.57706308 10.80620643 18.8671875 11.70703125 C22.50646335 14.24990479 26.12946646 16.81466777 29.74365234 19.39306641 C31.25923861 20.47244195 32.77784874 21.54758305 34.29931641 22.61865234 C36.5233097 24.18900568 38.7317221 25.77919698 40.9375 27.375 C41.9577124 28.08789185 41.9577124 28.08789185 42.99853516 28.81518555 C47.84588722 32.36895725 49.38038431 35.09172368 50.33813477 41.1328125 C50.69977829 43.6891589 51.00860776 46.24866709 51.3125 48.8125 C52.52985975 58.45552932 54.27258475 67.92784196 56.28637695 77.43481445 C57.24669374 82.01079306 58.11395411 86.513331 58.5859375 91.16796875 C58.57108302 94.78010029 58.57108302 94.78010029 60 96 C60.61540765 98.89241595 60.77291011 100.20523893 60 103 C58.08657907 105.59118689 55.94132195 107.81640734 53.69921875 110.12890625 C50.74103398 113.27545589 48.12477015 116.57658736 45.5 120 C41.56271125 125.09620176 37.44585963 129.92672818 33.08203125 134.66796875 C29.85040924 138.28762792 26.91309316 142.12212036 24 146 C17.70147952 145.57939763 12.83076305 142.50889237 7.4375 139.5 C6.45894043 138.95972168 5.48038086 138.41944336 4.47216797 137.86279297 C-3.03337831 133.66380784 -10.11387154 129.15044676 -17 124 C-17.65734131 123.60844727 -18.31468262 123.21689453 -18.99194336 122.81347656 C-25.56044469 118.62548055 -27.0076904 113.86588276 -28.8125 106.5 C-29.24212036 104.88097778 -29.24212036 104.88097778 -29.68041992 103.22924805 C-30.48433214 100.15961825 -31.24682087 97.08239621 -32 94 C-32.34272459 92.68332641 -32.68628049 91.36686845 -33.03125 90.05078125 C-35.49038225 79.85767809 -36.30940041 69.43632664 -37 59 C-37.07476562 58.03271973 -37.14953125 57.06543945 -37.2265625 56.06884766 C-38.39905738 39.64034872 -38.39905738 39.64034872 -35.1640625 33.53515625 C-32.91342899 30.98917382 -30.73345075 29.0077174 -28 27 C-24.9435823 24.63196466 -22.27698059 22.35265007 -19.8125 19.375 C-13.79454773 12.34529593 -7.26834765 5.7381692 0 0 Z " fill="#00BA9D" transform="translate(114,229)"/>
<path d="M0 0 C0.95712891 0.4021875 0.95712891 0.4021875 1.93359375 0.8125 C6.72117784 2.66654531 11.61179145 4.20475 16.49414062 5.7890625 C17.27080078 6.04429687 18.04746094 6.29953125 18.84765625 6.5625 C19.8996521 6.90474609 19.8996521 6.90474609 20.97290039 7.25390625 C23.07299432 8.02686627 25.0183063 8.96370401 27 10 C26.67 10.33 26.34 10.66 26 11 C31.75564503 12.81590995 37.46816784 13.78267523 43.4375 14.625 C44.35982422 14.7590625 45.28214844 14.893125 46.23242188 15.03125 C48.4877014 15.35844081 50.74351482 15.68124951 53 16 C53 20.83171472 52.16752303 21.36359856 48.9375 24.75 C48.11121094 25.63171875 47.28492188 26.5134375 46.43359375 27.421875 C45.63050781 28.27265625 44.82742187 29.1234375 44 30 C42.82558593 31.32651441 41.65815431 32.65926607 40.5 34 C35.62856797 39.58979989 30.6410485 45.07534898 25.671875 50.578125 C21.68295423 55.00121401 17.72432093 59.44615005 13.8125 63.9375 C10.96487712 67.17789845 8.06663714 70.37241365 5.17578125 73.57421875 C3.32556437 75.63702788 1.50055191 77.7171237 -0.3125 79.8125 C-3.98239106 84.02988063 -7.78985696 88.11613985 -11.59033203 92.21533203 C-14.88786159 95.77807289 -18.1267086 99.38106346 -21.30078125 103.0546875 C-23.29406428 105.3366529 -25.33493027 107.57228574 -27.375 109.8125 C-30.40973184 113.16801725 -33.3041891 116.58838182 -36.125 120.125 C-40.65245123 125.72851799 -45.54350093 130.94940933 -50.50830078 136.16650391 C-54.79564929 140.67645382 -58.93675661 145.28736639 -63 150 C-63.52480957 150.60803467 -64.04961914 151.21606934 -64.59033203 151.8425293 C-65.62034377 153.0371807 -66.64996894 154.23216551 -67.67919922 155.42749023 C-73.20723487 161.84135193 -78.83230754 168.14418114 -84.578125 174.36328125 C-87.19312281 177.21025467 -89.74213193 180.10614514 -92.2734375 183.02734375 C-94.23860442 185.27261365 -96.24358518 187.47902573 -98.25 189.6875 C-101.70987766 193.51682223 -105.06113581 197.42015854 -108.375 201.375 C-112.50861605 206.30365401 -116.76460891 211.09294 -121.13818359 215.80957031 C-124.36798573 219.29358611 -127.49876651 222.84603831 -130.5625 226.4765625 C-132 228 -132 228 -135 230 C-133.60634525 225.31160249 -131.620775 221.21688396 -129.1875 217 C-128.79643066 216.31341309 -128.40536133 215.62682617 -128.00244141 214.91943359 C-124.15013686 208.18943226 -120.18952887 201.52262951 -116.23022461 194.85522461 C-111.84316738 187.45859671 -107.53609842 180.01801014 -103.25 172.5625 C-97.92971268 163.31389229 -92.53325297 154.12239003 -87 145 C-85.58048304 142.64754272 -84.16458406 140.29292636 -82.75 137.9375 C-82.38640381 137.33228516 -82.02280762 136.72707031 -81.64819336 136.10351562 C-77.73182984 129.57262225 -73.86844624 123.01051649 -70 116.45117188 C-66.44510696 110.42919948 -62.85962749 104.42678954 -59.25 98.4375 C-54.65595504 90.81426148 -50.15164212 83.14051187 -45.66604614 75.45321655 C-38.82942488 63.73996552 -31.82615802 52.14816287 -24.64306641 40.64355469 C-21.56788736 35.69585206 -18.53298862 30.72363955 -15.5 25.75 C-14.63628784 24.33871826 -14.63628784 24.33871826 -13.75512695 22.89892578 C-10.73427497 17.94037814 -7.82316005 12.95291755 -5.09106445 7.82885742 C-3.71598632 5.52393231 -1.96077001 3.81552779 0 2 C0 1.34 0 0.68 0 0 Z " fill="#004F41" transform="translate(163,504)"/>
<path d="M0 0 C1.875 0.25 1.875 0.25 4 1 C4.70394612 2.31403276 5.36345658 3.6520257 6 5 C8.15261464 7.27220434 10.39490641 9.4233814 12.66015625 11.58203125 C14.14069928 13.02057306 15.57384964 14.50751706 17 16 C17 16.66 17 17.32 17 18 C17.66 18 18.32 18 19 18 C20.8368018 20.19873319 22.47373171 22.51200656 24.1484375 24.8359375 C26.04976343 27.05816232 27.41029948 27.7722137 30 29 C31.60559963 30.70193561 32.99958226 32.4994642 34.4375 34.34375 C36.14840238 36.15730652 37.72512933 37.0194523 40 38 C39.34098813 42.07178569 38.05335519 45.56279546 36.4453125 49.35546875 C36.18843658 49.96492844 35.93156067 50.57438812 35.66690063 51.20231628 C34.82398011 53.19926179 33.97448449 55.19333901 33.125 57.1875 C32.52853001 58.59763241 31.93250734 60.0079541 31.33691406 61.41845703 C29.56354412 65.61469096 27.78229361 69.8075504 26 74 C12.21749982 106.46153988 -1.26274109 139.04279066 -14.4682312 171.74320984 C-16.72651273 177.33217332 -19.00595819 182.91230674 -21.29077148 188.49047852 C-29.35555569 208.1927537 -37.12404582 228.01135165 -44.83203125 247.85546875 C-45.30891136 249.08302132 -45.30891136 249.08302132 -45.79542542 250.33537292 C-47.33898859 254.30985025 -48.88067562 258.28503991 -50.41918945 262.26147461 C-50.97997192 263.70817389 -51.54076252 265.15487001 -52.1015625 266.6015625 C-52.35102127 267.24808273 -52.60048004 267.89460297 -52.85749817 268.56071472 C-54.48268123 272.74938424 -56.21101534 276.87957291 -58 281 C-58.33 281 -58.66 281 -59 281 C-58.47243573 270.5954248 -56.2877583 260.50002867 -54.25 250.3125 C-53.88329955 248.45945591 -53.51692823 246.60634665 -53.15087891 244.75317383 C-49.66537061 227.15173434 -45.98891106 209.59489814 -42.2265625 192.05078125 C-41.69351924 189.5642096 -41.16047896 187.07763732 -40.62744141 184.59106445 C-40.35716125 183.33041168 -40.0868811 182.06975891 -39.80841064 180.77090454 C-38.53851487 174.84736088 -37.26927538 168.92367662 -36 163 C-35.50000348 160.66666592 -35.00000347 158.33333259 -34.5 156 C-34.2525 154.845 -34.005 153.69 -33.75 152.5 C-33 149 -32.25 145.5 -31.5 142 C-31.25238419 140.84445114 -31.00476837 139.68890228 -30.74964905 138.49833679 C-30.25083279 136.17054451 -29.75200268 133.84275519 -29.25315857 131.51496887 C-27.98493239 125.59688205 -26.71696455 119.67874008 -25.44946289 113.76049805 C-23.17855362 103.15821367 -20.90606607 92.55629456 -18.62109375 81.95703125 C-17.89274462 78.57562499 -17.16495639 75.19409842 -16.4375 71.8125 C-16.24612457 70.92331879 -16.05474915 70.03413757 -15.85757446 69.11801147 C-13.54567353 58.36544926 -11.29331287 47.60754394 -9.1875 36.8125 C-7.26583718 26.98886899 -5.10217362 17.29123233 -1.92578125 7.78515625 C-1.06504154 5.1956735 -0.47364209 2.68397184 0 0 Z " fill="#00493C" transform="translate(75,438)"/>
<path d="M0 0 C2.51815307 2.51815307 2.38206858 3.68743723 2.7109375 7.1875 C2.81913818 8.26475342 2.92733887 9.34200684 3.03881836 10.4519043 C3.1497583 11.62277588 3.26069824 12.79364746 3.375 14 C4.32512304 23.27676771 5.45191802 32.48121864 6.9375 41.6875 C9.1441146 55.46077166 10.85841309 69.27846311 12.52441406 83.12597656 C12.85804819 85.84369032 13.20238872 88.5581634 13.56152344 91.27246094 C13.6542453 91.98292572 13.74696716 92.6933905 13.84249878 93.42538452 C14.10141525 95.40297014 14.36477284 97.37997283 14.62841797 99.35693359 C15 103 15 103 15 110 C-5.79 110 -26.58 110 -48 110 C-47.2474512 106.23725601 -46.81896093 104.28968669 -45.125 101.125 C-43.23229729 97.48256853 -41.59378836 93.78524736 -40 90 C-39.3562137 88.56158207 -38.71024752 87.12413847 -38.0625 85.6875 C-36.65835173 82.55068576 -35.36310236 79.39320902 -34.125 76.1875 C-32.63463073 72.40020869 -30.92428787 68.80632041 -29.0625 65.1875 C-26.37535946 59.92151678 -24.21736003 54.57045548 -22.15234375 49.03515625 C-20.59888873 44.9435137 -18.81460375 40.98042113 -17 37 C-16.6596875 36.21625 -16.319375 35.4325 -15.96875 34.625 C-15.6284375 33.84125 -15.288125 33.0575 -14.9375 32.25 C-14.63714844 31.55390625 -14.33679687 30.8578125 -14.02734375 30.140625 C-13 28 -13 28 -11.52734375 25.62109375 C-9.85835922 22.75692848 -8.75549184 19.92704297 -7.625 16.8125 C-5.44429825 10.99287649 -2.91070234 5.48698357 0 0 Z " fill="#040706" transform="translate(1381,534)"/>
<path d="M0 0 C0.66 0 1.32 0 2 0 C4.69272231 19.18255532 7.25261727 38.37795276 9.66479492 57.59765625 C10.10341882 61.08997129 10.54895668 64.58137013 10.99590588 68.07262802 C11.34891375 70.84015908 11.69680793 73.60831702 12.04342079 76.37665558 C12.28191548 78.27155404 12.52562002 80.1657946 12.76957703 82.05999756 C13.92947863 91.41016402 14.44332949 100.53660139 15 110 C-5.46 110 -25.92 110 -47 110 C-46.11755841 104.70535044 -45.19139408 102.01776759 -42.75 97.4375 C-39.78429153 91.74251868 -37.35253213 85.99150821 -35.1171875 79.96484375 C-33.58324659 75.89400056 -31.80870213 71.95424758 -30 68 C-29.33163143 66.50075756 -28.66498571 65.00074596 -28 63.5 C-20 45.5 -20 45.5 -18.99609375 43.24609375 C-18.33760006 41.76125504 -17.68386445 40.27429613 -17.03515625 38.78515625 C-15.32290493 34.87242131 -13.52407543 31.04442247 -11.5625 27.25 C-9.07363052 22.34097216 -7.13156704 17.291274 -5.203125 12.140625 C-3.62465089 8.02019258 -1.85185383 4.00372868 0 0 Z " fill="#040706" transform="translate(932,534)"/>
<path d="M0 0 C4.4254099 1.94547005 7.21709905 5.54958338 10.42578125 9.06640625 C11.25078125 9.91203125 12.07578125 10.75765625 12.92578125 11.62890625 C15.09484811 15.1536399 15.18597714 16.98899191 14.42578125 21.06640625 C12.42229348 24.05297187 9.9392134 26.50625603 7.42578125 29.06640625 C6.06591555 30.58214589 4.71207428 32.10330514 3.36328125 33.62890625 C2.61175781 34.45390625 1.86023438 35.27890625 1.0859375 36.12890625 C-0.97253236 38.40198898 -2.99839127 40.69471175 -5.015625 43.00390625 C-6.24283312 44.37949218 -7.47069746 45.75449297 -8.69921875 47.12890625 C-9.27293213 47.79672119 -9.84664551 48.46453613 -10.43774414 49.15258789 C-13.26907454 52.2819957 -15.09146718 53.8949024 -19.13671875 55.33203125 C-23.66764337 54.98191435 -25.58441711 53.00681649 -28.44921875 49.75390625 C-28.93390625 49.24150391 -29.41859375 48.72910156 -29.91796875 48.20117188 C-32.89522683 45.01184653 -34.43343418 43.19678336 -34.9765625 38.8359375 C-34.46688245 34.06077974 -32.43498841 31.9612028 -29.13671875 28.75390625 C-28.02413878 27.61386728 -26.91216433 26.47323706 -25.80078125 25.33203125 C-25.24938477 24.77708984 -24.69798828 24.22214844 -24.12988281 23.65039062 C-22.01688769 21.49892918 -20.01263258 19.25948184 -18.01171875 17.00390625 C-17.30402344 16.22273437 -16.59632813 15.4415625 -15.8671875 14.63671875 C-14.13292982 12.69269566 -12.43552818 10.73153596 -10.75 8.74609375 C-9.77490899 7.62355074 -8.79965083 6.5011529 -7.82421875 5.37890625 C-7.37618896 4.8367749 -6.92815918 4.29464355 -6.46655273 3.73608398 C-3.25368758 0.08393428 -3.25368758 0.08393428 0 0 Z " fill="#00AF95" transform="translate(193.57421875,644.93359375)"/>
<path d="M0 0 C0 4.17688382 -2.31675838 5.83861524 -5.0625 8.6875 C-6.08532599 9.77408995 -7.10746264 10.8613292 -8.12890625 11.94921875 C-8.62664551 12.47563965 -9.12438477 13.00206055 -9.63720703 13.54443359 C-11.30399052 15.32468496 -12.90881079 17.15204188 -14.5 19 C-16.89876503 21.77000247 -19.35476617 24.47872185 -21.84375 27.16796875 C-26.17992672 31.85344859 -30.40401364 36.6026887 -34.5 41.5 C-39.02237467 46.90711678 -43.72089059 52.11992134 -48.5078125 57.29296875 C-51.14878138 60.16160736 -53.72022134 63.08085969 -56.2734375 66.02734375 C-58.23860442 68.27261365 -60.24358518 70.47902573 -62.25 72.6875 C-65.70987766 76.51682223 -69.06113581 80.42015854 -72.375 84.375 C-76.50861605 89.30365401 -80.76460891 94.09294 -85.13818359 98.80957031 C-88.36798573 102.29358611 -91.49876651 105.84603831 -94.5625 109.4765625 C-96 111 -96 111 -99 113 C-97.60634525 108.31160249 -95.620775 104.21688396 -93.1875 100 C-92.79643066 99.31341309 -92.40536133 98.62682617 -92.00244141 97.91943359 C-88.15013686 91.18943226 -84.18952887 84.52262951 -80.23022461 77.85522461 C-75.84316738 70.45859671 -71.53609842 63.01801014 -67.25 55.5625 C-62.58859312 47.45926778 -57.89674765 39.3810053 -53.05078125 31.38671875 C-51.57968267 28.95730453 -50.11856856 26.5236053 -48.66796875 24.08203125 C-44.61609097 17.2695977 -40.50849962 10.52406415 -36 4 C-35.01 4.495 -35.01 4.495 -34 5 C-34.47961182 5.77819092 -34.95922363 6.55638184 -35.45336914 7.3581543 C-50.44917274 31.47071805 -50.44917274 31.47071805 -64.67504883 56.03735352 C-69.70158654 65.1256911 -75.00738024 74.05575634 -80.25488281 83.01757812 C-83.17529185 88.00858496 -86.08752954 93.00435774 -89 98 C-85.85370305 97.31796469 -85.85370305 97.31796469 -84.6875 94.75 C-83 92 -83 92 -80.0625 89.5625 C-76.9174396 86.93091885 -75.20950523 84.42116938 -73 81 C-70.65445195 78.53717454 -68.22186699 76.20954104 -65.75 73.875 C-63.77556277 72.02022825 -63.77556277 72.02022825 -63 69 C-61.6171875 67.67578125 -61.6171875 67.67578125 -59.875 66.3125 C-56.50895253 63.52798512 -53.70712428 60.523801 -50.8828125 57.19921875 C-48.80502734 54.77226223 -46.65633398 52.41984817 -44.5 50.0625 C-40.97688099 46.16789565 -37.73383566 42.14081715 -34.55859375 37.9609375 C-32.55961384 35.44593019 -30.26980711 33.26980711 -28 31 C-27.38125 30.030625 -26.7625 29.06125 -26.125 28.0625 C-23.88683691 24.83691201 -21.56062508 22.78267003 -18.48828125 20.39453125 C-16.72289858 18.96211074 -16.72289858 18.96211074 -16 16 C-14.6171875 14.67578125 -14.6171875 14.67578125 -12.875 13.3125 C-9.34958768 10.41221234 -6.42650245 7.21298687 -3.48046875 3.734375 C-2 2 -2 2 0 0 Z " fill="#007D68" transform="translate(127,621)"/>
<path d="M0 0 C1.3397853 4.01935589 0.25613256 5.46175802 -1.359375 9.34375 C-1.74920563 10.29198891 -1.74920563 10.29198891 -2.14691162 11.25938416 C-3.00592348 13.34330031 -3.87804306 15.42147117 -4.75 17.5 C-5.35319789 18.95800787 -5.95540058 20.41642783 -6.55664062 21.87524414 C-7.78125713 24.84338141 -9.01053868 27.80951186 -10.24414062 30.77392578 C-12.68868189 36.65119539 -15.09765669 42.54287376 -17.5 48.4375 C-17.94206787 49.5210376 -18.38413574 50.6045752 -18.83959961 51.72094727 C-26.01686601 69.36060343 -32.93688817 87.10400463 -39.83203125 104.85546875 C-40.30891136 106.08302132 -40.30891136 106.08302132 -40.79542542 107.33537292 C-42.33898859 111.30985025 -43.88067562 115.28503991 -45.41918945 119.26147461 C-45.97997192 120.70817389 -46.54076252 122.15487001 -47.1015625 123.6015625 C-47.35102127 124.24808273 -47.60048004 124.89460297 -47.85749817 125.56071472 C-49.48268123 129.74938424 -51.21101534 133.87957291 -53 138 C-53.33 138 -53.66 138 -54 138 C-53.46154556 127.9268249 -51.41428983 118.1770021 -49.4375 108.3125 C-49.1043033 106.6283569 -48.77161703 104.94411273 -48.43945312 103.25976562 C-47.632179 99.17198868 -46.81802017 95.08563948 -46 91 C-45.01 91 -44.02 91 -43 91 C-43.268125 92.134375 -43.53625 93.26875 -43.8125 94.4375 C-45.48110626 101.90421292 -46.70184433 109.46204273 -48 117 C-47.67 117 -47.34 117 -47 117 C-46.71125 115.906875 -46.4225 114.81375 -46.125 113.6875 C-45 110 -45 110 -43 107 C-42.53325395 105.36638883 -42.07014444 103.73157397 -41.6328125 102.08984375 C-40.89639219 99.6578384 -39.96580279 97.35012012 -39 95 C-37.37726574 91.04004401 -36.07969093 87.13881525 -35 83 C-34.34 83 -33.68 83 -33 83 C-32.938125 82.05125 -32.87625 81.1025 -32.8125 80.125 C-32.34774491 76.80532076 -31.25964637 74.32639135 -29.6875 71.375 C-26.57471572 65.51138311 -24.7876319 59.3715595 -23 53 C-22.34 53 -21.68 53 -21 53 C-20.81824219 52.27554688 -20.63648438 51.55109375 -20.44921875 50.8046875 C-19.07326981 45.5125762 -17.54621579 40.86095741 -15 36 C-14.30092586 33.26427415 -14.30092586 33.26427415 -14 31 C-13.34 31 -12.68 31 -12 31 C-11.81824219 30.35933594 -11.63648438 29.71867188 -11.44921875 29.05859375 C-10.27219215 25.00841504 -9.10514326 21.03983869 -7.375 17.1875 C-6.17169903 14.39802957 -5.45269441 11.98778309 -5 9 C-4.34 9 -3.68 9 -3 9 C-2.01 6.03 -1.02 3.06 0 0 Z " fill="#007C66" transform="translate(70,581)"/>
<path d="M0 0 C48.51 0 97.02 0 147 0 C146.01 3.63 145.02 7.26 144 11 C143.34 11.33 142.68 11.66 142 12 C142.53400897 8.08393425 143.19669467 5.60661066 145 2 C96.82 2 48.64 2 -1 2 C-0.67 1.34 -0.34 0.68 0 0 Z " fill="#00C8AA" transform="translate(673,273)"/>
<path d="M0 0 C1.3397853 4.01935589 0.25613256 5.46175802 -1.359375 9.34375 C-1.74974945 10.29334846 -1.74974945 10.29334846 -2.14801025 11.26213074 C-3.00662384 13.34514628 -3.87833543 15.42241618 -4.75 17.5 C-5.34732495 18.94336491 -5.94366992 20.38713574 -6.5390625 21.83129883 C-7.75793981 24.78473704 -8.98149417 27.73616645 -10.20898438 30.68603516 C-12.83708774 37.00719845 -15.41799739 43.34738987 -18 49.6875 C-18.43151367 50.74066406 -18.86302734 51.79382813 -19.30761719 52.87890625 C-22.30591397 60.21481681 -25.18001618 67.59379248 -28 75 C-28.66 74.34 -29.32 73.68 -30 73 C-29.57847656 71.97519531 -29.15695313 70.95039062 -28.72265625 69.89453125 C-28.1690397 68.53394819 -27.61566714 67.17326584 -27.0625 65.8125 C-26.64581055 64.80219727 -26.64581055 64.80219727 -26.22070312 63.77148438 C-24.77378944 60.19778189 -23.58836871 56.83556816 -23 53 C-22.34 53 -21.68 53 -21 53 C-20.81824219 52.27554688 -20.63648438 51.55109375 -20.44921875 50.8046875 C-19.07326981 45.5125762 -17.54621579 40.86095741 -15 36 C-14.30092586 33.26427415 -14.30092586 33.26427415 -14 31 C-13.34 31 -12.68 31 -12 31 C-11.81824219 30.35933594 -11.63648437 29.71867188 -11.44921875 29.05859375 C-10.27219215 25.00841504 -9.10514326 21.03983869 -7.375 17.1875 C-6.17169903 14.39802957 -5.45269441 11.98778309 -5 9 C-4.34 9 -3.68 9 -3 9 C-2.01 6.03 -1.02 3.06 0 0 Z " fill="#006D5A" transform="translate(70,581)"/>
<path d="M0 0 C6.1401013 5.94203352 11.76702423 12.38042079 17.3125 18.875 C24.4610861 27.05431247 32.04959297 34.80356437 41 41 C40.34 41.99 39.68 42.98 39 44 C38.67 43.34 38.34 42.68 38 42 C37.39285156 41.71253906 36.78570312 41.42507813 36.16015625 41.12890625 C33.57090727 39.77575443 32.27118434 38.19781336 30.4375 35.9375 C27.81717494 32.66415861 27.81717494 32.66415861 24 31 C22.39453125 29.44140625 22.39453125 29.44140625 20.8125 27.5625 C20.28269531 26.94503906 19.75289062 26.32757813 19.20703125 25.69140625 C18 24 18 24 18 22 C17.34 22 16.68 22 16 22 C14.46387524 20.25692106 12.99459641 18.45450904 11.5625 16.625 C9.11330281 13.50197096 7.31089299 11.20726199 4 9 C3.67 8.319375 3.34 7.63875 3 6.9375 C2.10301684 4.64657009 2.10301684 4.64657009 -1 4 C-0.67 2.68 -0.34 1.36 0 0 Z " fill="#01231C" transform="translate(76,434)"/>
<path d="M0 0 C6.65560343 5.09790901 11.14841902 11.21272882 16 18 C16.81082031 19.0209375 17.62164062 20.041875 18.45703125 21.09375 C23.94863183 28.35351499 23.94863183 28.35351499 24.07421875 32.37890625 C23.32268292 35.10379996 22.22467449 37.44859481 21 40 C20.4173421 41.45185767 19.84529589 42.90799829 19.28125 44.3671875 C14.42214644 56.78892678 14.42214644 56.78892678 12 58 C13.36493371 53.67770992 14.78755158 49.4416721 16.5703125 45.2734375 C16.84601074 44.62060791 17.12170898 43.96777832 17.40576172 43.29516602 C17.96006002 41.99341457 18.52645886 40.69673639 19.10595703 39.40600586 C20.91526781 35.12817369 21.47303772 32.42475699 20 28 C18.3395673 25.08066012 16.42397567 22.39258415 14.4375 19.6875 C13.89899414 18.93782959 13.36048828 18.18815918 12.80566406 17.41577148 C9.25403929 12.53255215 5.52075851 7.9209504 1.328125 3.56640625 C0 2 0 2 0 0 Z " fill="#00D0B0" transform="translate(356,144)"/>
<path d="M0 0 C9.61900337 4.37652951 18.18587292 11.96207798 26.125 18.8125 C26.75188721 19.35108643 27.37877441 19.88967285 28.0246582 20.44458008 C31.40144264 23.40632534 34.27153227 26.40926255 37 30 C38.64646685 31.68662458 40.31183067 33.35511706 42 35 C43 36 44 37 45 38 C44.505 38.99 44.505 38.99 44 40 C43.38068604 39.3702124 42.76137207 38.7404248 42.12329102 38.09155273 C39.78470654 35.71852923 37.44141779 33.35034713 35.0949707 30.98510742 C34.0875653 29.96775154 33.08197423 28.94859526 32.07836914 27.92749023 C23.24094238 18.94005223 14.06343777 11.52489758 3.40625 4.796875 C1 3 1 3 0 0 Z " fill="#00CBAC" transform="translate(340,83)"/>
<path d="M0 0 C0.66 0.33 1.32 0.66 2 1 C1.731875 2.134375 1.46375 3.26875 1.1875 4.4375 C0.12893354 9.23173216 -0.79848624 14.04695569 -1.6875 18.875 C-1.83098877 19.62450928 -1.97447754 20.37401855 -2.12231445 21.14624023 C-2.7358945 24.54728175 -3.11040479 26.66878562 -2 30 C-2.92203709 32.36522558 -3.91698965 34.70401807 -5 37 C-5.66 36.34 -6.32 35.68 -7 35 C-6.57302339 27.55840757 -4.97895814 20.29337645 -3.5 13 C-3.27441406 11.85660156 -3.04882812 10.71320312 -2.81640625 9.53515625 C-2.59855469 8.45105469 -2.38070313 7.36695313 -2.15625 6.25 C-1.95837891 5.26515625 -1.76050781 4.2803125 -1.55664062 3.265625 C-1 1 -1 1 0 0 Z " fill="#007462" transform="translate(25,671)"/>
<path d="M0 0 C0 4.17691537 -2.31675392 5.83854376 -5.0625 8.6875 C-6.08009749 9.76890079 -7.09702494 10.85093248 -8.11328125 11.93359375 C-8.61037598 12.45937012 -9.1074707 12.98514648 -9.61962891 13.52685547 C-12.50344788 16.6044932 -15.24000111 19.811839 -18 23 C-19.31176715 24.50064092 -20.62425786 26.00064969 -21.9375 27.5 C-22.52402344 28.1703125 -23.11054687 28.840625 -23.71484375 29.53125 C-24.35099609 30.25828125 -24.35099609 30.25828125 -25 31 C-25.33 30.34 -25.66 29.68 -26 29 C-24.80056151 25.7556172 -23.12750678 24.0434552 -20.4375 21.9375 C-17.80562347 19.87467786 -17.09567461 19.28702382 -16 16 C-14.6171875 14.67578125 -14.6171875 14.67578125 -12.875 13.3125 C-9.34958768 10.41221234 -6.42650245 7.21298687 -3.48046875 3.734375 C-2 2 -2 2 0 0 Z " fill="#006B58" transform="translate(127,621)"/>
<path d="M0 0 C0.33 0.66 0.66 1.32 1 2 C0.0625 4.125 0.0625 4.125 -1 6 C2.79160297 6.05786668 6.58309311 6.09355054 10.375 6.125 C11.99535156 6.15013672 11.99535156 6.15013672 13.6484375 6.17578125 C15.1953125 6.18544922 15.1953125 6.18544922 16.7734375 6.1953125 C17.72653809 6.20578613 18.67963867 6.21625977 19.66162109 6.22705078 C22.1923213 6.23131867 22.1923213 6.23131867 24 4 C23.67 5.65 23.34 7.3 23 9 C14.09 9 5.18 9 -4 9 C-2 3 -2 3 0 0 Z " fill="#00AD94" transform="translate(418,367)"/>
<path d="M0 0 C5.55462355 0.84666317 9.2384989 5.11305831 13.36914062 8.63378906 C15.09194253 10.07702252 16.84613477 11.47371963 18.609375 12.8671875 C19.80227006 13.82789319 20.99498172 14.78882665 22.1875 15.75 C22.7642749 16.19714355 23.3410498 16.64428711 23.93530273 17.10498047 C27.91881977 20.36801629 27.91881977 20.36801629 28.36328125 23.828125 C28.24339844 24.54484375 28.12351563 25.2615625 28 26 C27.34 26.33 26.68 26.66 26 27 C25.855625 26.175 25.71125 25.35 25.5625 24.5 C23.245661 19.31028063 19.35322018 16.53779398 15 13 C14.04351562 12.21753906 13.08703125 11.43507813 12.1015625 10.62890625 C10.2340576 9.10436136 8.36084417 7.58676675 6.48046875 6.078125 C4.1858259 4.15568406 2.07880105 2.1514864 0 0 Z " fill="#00CEAE" transform="translate(214,116)"/>
<path d="M0 0 C6.87441016 0.79255942 13.67801609 1.9078221 20.5 3.0625 C21.60859375 3.24876953 22.7171875 3.43503906 23.859375 3.62695312 C26.57317019 4.08315145 29.2866995 4.54087025 32 5 C31.01 5.495 31.01 5.495 30 6 C29.67 6.66 29.34 7.32 29 8 C28.67 7.67 28.34 7.34 28 7 C26.44047339 6.73880218 24.87160472 6.53283907 23.30078125 6.3515625 C22.33849609 6.23296875 21.37621094 6.114375 20.38476562 5.9921875 C18.35675811 5.74980644 16.32811028 5.51271705 14.29882812 5.28125 C8.91347571 4.60763306 4.65646657 3.83988932 0 1 C0 0.67 0 0.34 0 0 Z " fill="#00291F" transform="translate(188,514)"/>
<path d="M0 0 C0 3.86251359 -1.1097764 4.58286316 -3.6875 7.375 C-4.42355469 8.17679688 -5.15960938 8.97859375 -5.91796875 9.8046875 C-8.23531626 12.24811958 -10.61883714 14.61883714 -13 17 C-15.69349944 19.97649376 -18.35148769 22.98345621 -21 26 C-21.33 25.01 -21.66 24.02 -22 23 C-21.35933594 22.3709375 -20.71867188 21.741875 -20.05859375 21.09375 C-15.36982546 16.45389584 -10.82855301 11.77290079 -6.5390625 6.76171875 C-4.46575944 4.38847084 -2.26166261 2.19312738 0 0 Z " fill="#00C6A9" transform="translate(248,585)"/>
<path d="M0 0 C9.56540155 7.73372891 16.98344651 16.94357728 24 27 C23.67 27.66 23.34 28.32 23 29 C22.34515625 28.14019531 21.6903125 27.28039062 21.015625 26.39453125 C15.55700502 19.30226543 9.92753681 12.53307365 3.70996094 6.08911133 C0 2.20128398 0 2.20128398 0 0 Z " fill="#00D6B6" transform="translate(391,94)"/>
<path d="M0 0 C0.66 0.66 1.32 1.32 2 2 C1.69946289 3.79980469 1.69946289 3.79980469 1 6 C0.59880406 7.73344022 0.20204362 9.46791021 -0.19140625 11.203125 C-0.41376953 12.1828125 -0.63613281 13.1625 -0.86523438 14.171875 C-1.09533203 15.18765625 -1.32542969 16.2034375 -1.5625 17.25 C-1.79646484 18.28125 -2.03042969 19.3125 -2.27148438 20.375 C-2.84804617 22.91657851 -3.4242037 25.45824797 -4 28 C-4.33 28 -4.66 28 -5 28 C-3.76595745 7.53191489 -3.76595745 7.53191489 0 0 Z " fill="#00725F" transform="translate(31,641)"/>
<path d="M0 0 C1.1916143 3.57484289 0.74788456 4.28587882 -0.65234375 7.66796875 C-1.01650391 8.56064453 -1.38066406 9.45332031 -1.75585938 10.37304688 C-2.14580078 11.30181641 -2.53574219 12.23058594 -2.9375 13.1875 C-3.32357422 14.12787109 -3.70964844 15.06824219 -4.10742188 16.03710938 C-5.06321649 18.36169628 -6.02767007 20.68229199 -7 23 C-7.33 23 -7.66 23 -8 23 C-7.88610125 21.20759337 -7.75852313 19.41605165 -7.625 17.625 C-7.55539063 16.62726562 -7.48578125 15.62953125 -7.4140625 14.6015625 C-7 12 -7 12 -5 10 C-3.46478044 7.69717067 -2.41642091 5.82137765 -1.375 3.3125 C-0.92125 2.219375 -0.4675 1.12625 0 0 Z " fill="#00846F" transform="translate(24,696)"/>
<path d="M0 0 C4.90270164 0.23737475 9.66447819 1.27955237 14.4375 2.375 C14.4375 2.705 14.4375 3.035 14.4375 3.375 C12.70113281 3.28798828 12.70113281 3.28798828 10.9296875 3.19921875 C9.39066552 3.15229735 7.85159967 3.10679974 6.3125 3.0625 C5.55195313 3.02060547 4.79140625 2.97871094 4.0078125 2.93554688 C-0.25004803 2.84378264 -2.77934417 3.11299515 -6.1171875 5.89453125 C-6.92414063 6.71308594 -7.73109375 7.53164063 -8.5625 8.375 C-7.93474433 7.02291086 -7.25830267 5.69336295 -6.5625 4.375 C-6.19125 3.6325 -5.82 2.89 -5.4375 2.125 C-3.5625 0.375 -3.5625 0.375 0 0 Z " fill="#00C9AA" transform="translate(192.5625,347.625)"/>
<path d="M0 0 C0.66 0 1.32 0 2 0 C0.36047417 4.6393176 -2.06871052 8.63855858 -4.625 12.8125 C-5.04523438 13.50537109 -5.46546875 14.19824219 -5.8984375 14.91210938 C-6.9289467 16.61010748 -7.96401681 18.30533614 -9 20 C-10 17 -10 17 -9.22729492 15.09887695 C-8.81584229 14.40238037 -8.40438965 13.70588379 -7.98046875 12.98828125 C-7.53509766 12.23095703 -7.08972656 11.47363281 -6.63085938 10.69335938 C-6.15455078 9.90767578 -5.67824219 9.12199219 -5.1875 8.3125 C-4.72279297 7.51521484 -4.25808594 6.71792969 -3.77929688 5.89648438 C-1.18233065 1.54088392 -1.18233065 1.54088392 0 0 Z " fill="#00604F" transform="translate(103,604)"/>
<path d="M0 0 C2.67578125 1.84765625 2.67578125 1.84765625 5.3125 4.0625 C6.19550781 4.79597656 7.07851563 5.52945313 7.98828125 6.28515625 C8.98408203 7.13400391 8.98408203 7.13400391 10 8 C6.39543833 8 5.3951002 7.11319598 2.5 5.0625 C-0.0857992 3.23951157 -1.97874931 2.00708356 -5 1 C-5 1.66 -5 2.32 -5 3 C-6.32 2.34 -7.64 1.68 -9 1 C-5.6000253 -1.14072481 -3.81772379 -1.15419557 0 0 Z " fill="#00C7A9" transform="translate(320,113)"/>
<path d="M0 0 C4.76737291 0.66728392 9.24908272 1.87908956 13.8125 3.375 C14.49248047 3.58382813 15.17246094 3.79265625 15.87304688 4.0078125 C17.83203125 4.6484375 17.83203125 4.6484375 21 6 C21.33 6.99 21.66 7.98 22 9 C16.59697629 7.4529303 11.2435681 5.79184579 5.9375 3.9375 C5.01839844 3.61652344 4.09929687 3.29554688 3.15234375 2.96484375 C1 2 1 2 0 0 Z " fill="#011A12" transform="translate(165,506)"/>
<path d="M0 0 C0 3.63464315 -0.62548537 4.02840882 -3.0625 6.57421875 C-3.69414062 7.24130859 -4.32578125 7.90839844 -4.9765625 8.59570312 C-5.64429688 9.28599609 -6.31203125 9.97628906 -7 10.6875 C-8.00160156 11.7403418 -8.00160156 11.7403418 -9.0234375 12.81445312 C-10.67577321 14.54940562 -12.3347315 16.27747207 -14 18 C-14.66 17.67 -15.32 17.34 -16 17 C-10.72 11.39 -5.44 5.78 0 0 Z " fill="#00CDAE" transform="translate(328,495)"/>
<path d="M0 0 C5.08335725 0.15404113 7.35754718 3.02068432 10.64453125 6.50390625 C11.09183594 6.99761719 11.53914062 7.49132812 12 8 C11.34 8.66 10.68 9.32 10 10 C8 8 6 6 4 4 C1.66702567 3.95907063 -0.66705225 3.95758277 -3 4 C-2.01 2.68 -1.02 1.36 0 0 Z " fill="#00B99E" transform="translate(191,645)"/>
<path d="M0 0 C0.33 0 0.66 0 1 0 C0.76691057 2.42016262 0.52741305 4.83933406 0.27734375 7.2578125 C0.10735649 8.93853158 -0.04944788 10.62072872 -0.18359375 12.3046875 C-0.57232904 16.5093753 -1.3416876 18.77306463 -4 22 C-3.5697663 14.3299717 -2.25768639 7.34103058 0 0 Z " fill="#006050" transform="translate(45,576)"/>
<path d="M0 0 C0.66 0.33 1.32 0.66 2 1 C0.58922306 2.7755291 -0.82886536 4.54525031 -2.25 6.3125 C-3.03890625 7.29863281 -3.8278125 8.28476562 -4.640625 9.30078125 C-6.65198298 11.6018547 -8.4793158 13.30605396 -11 15 C-9.58319756 10.67953102 -7.46236215 7.99538801 -4.375 4.6875 C-3.55773437 3.80449219 -2.74046875 2.92148437 -1.8984375 2.01171875 C-0.95871094 1.01591797 -0.95871094 1.01591797 0 0 Z " fill="#00C3A6" transform="translate(166,376)"/>
<path d="M0 0 C0.66 0.33 1.32 0.66 2 1 C1.91231752 2.5843317 1.80412671 4.16753567 1.6875 5.75 C1.62949219 6.63171875 1.57148437 7.5134375 1.51171875 8.421875 C0.9358819 11.32303774 -0.07596148 12.79225607 -2 15 C-2.22577402 9.5814234 -1.46670113 5.22512279 0 0 Z " fill="#00BFA3" transform="translate(584,286)"/>
<path d="M0 0 C0.33 0 0.66 0 1 0 C2.25841946 6.74153283 3.26404456 13.13484138 3 20 C2.67 20 2.34 20 2 20 C2 18.02 2 16.04 2 14 C1.34 14 0.68 14 0 14 C-0.77916092 8.97874074 -1.13016601 5.02296004 0 0 Z " fill="#01A28A" transform="translate(1001,518)"/>
<path d="M0 0 C6.20970773 -0.33266291 10.28264895 0.54970669 16 3 C16 3.33 16 3.66 16 4 C10.43109483 3.52013969 5.32932432 2.70084819 0 1 C0 0.67 0 0.34 0 0 Z " fill="#00C2A5" transform="translate(718,479)"/>
<path d="M0 0 C0.33 0 0.66 0 1 0 C2.25841946 6.74153283 3.26404456 13.13484138 3 20 C2.67 20 2.34 20 2 20 C2 18.02 2 16.04 2 14 C1.34 14 0.68 14 0 14 C-0.77916092 8.97874074 -1.13016601 5.02296004 0 0 Z " fill="#019F88" transform="translate(1005,545)"/>
<path d="M0 0 C0.33 0 0.66 0 1 0 C2.25841946 6.74153283 3.26404456 13.13484138 3 20 C2.67 20 2.34 20 2 20 C1.67 18.35 1.34 16.7 1 15 C0.67 15 0.34 15 0 15 C-1.33257403 4.44191344 -1.33257403 4.44191344 0 0 Z " fill="#00A48C" transform="translate(996,484)"/>
<path d="M0 0 C0.33 0 0.66 0 1 0 C2.38461538 9.07692308 2.38461538 9.07692308 1 13 C0.01 13.66 -0.98 14.32 -2 15 C-1.85816304 13.24967156 -1.71136571 11.49974466 -1.5625 9.75 C-1.48128906 8.77546875 -1.40007813 7.8009375 -1.31640625 6.796875 C-1.04925416 4.43538247 -0.64628032 2.28098935 0 0 Z " fill="#009E86" transform="translate(569,362)"/>
<path d="M0 0 C0.33 0 0.66 0 1 0 C0.91299202 2.43922361 0.80613998 4.87478414 0.6875 7.3125 C0.66494141 8.00279297 0.64238281 8.69308594 0.61914062 9.40429688 C0.3453392 14.55674183 0.3453392 14.55674183 -1.54296875 16.98046875 C-2.02378906 17.31691406 -2.50460938 17.65335938 -3 18 C-3.42765417 11.58518742 -1.85743168 6.11404596 0 0 Z " fill="#006856" transform="translate(40,599)"/>
<path d="M0 0 C4.10958767 1.45044271 7.43258745 3.51110752 11 6 C10.34 6.66 9.68 7.32 9 8 C8.0925 7.154375 7.185 6.30875 6.25 5.4375 C3.88600632 3.37800856 3.88600632 3.37800856 0.875 3 C-1.2700623 4.14403323 -3.12259869 5.45784893 -5 7 C-3.70700306 4.11562221 -2.34058637 2.12780579 0 0 Z " fill="#00D4B5" transform="translate(114,229)"/>
<path d="M0 0 C0.66 0.33 1.32 0.66 2 1 C1.47462276 6.0302076 0.89405214 11.01885239 0 16 C-0.33 16 -0.66 16 -1 16 C-2.24327778 10.15659442 -1.57300962 5.73303505 0 0 Z " fill="#00A88E" transform="translate(955,273)"/>
<path d="M0 0 C0.66 0.33 1.32 0.66 2 1 C-0.97 5.29 -3.94 9.58 -7 14 C-7.33 13.01 -7.66 12.02 -8 11 C-6.85546875 8.80859375 -6.85546875 8.80859375 -5.1875 6.4375 C-4.64480469 5.65246094 -4.10210938 4.86742187 -3.54296875 4.05859375 C-2 2 -2 2 0 0 Z " fill="#00C5A7" transform="translate(903,184)"/>
<path d="M0 0 C0.33 0 0.66 0 1 0 C1.66 5.61 2.32 11.22 3 17 C2.67 16.01 2.34 15.02 2 14 C1.34 14 0.68 14 0 14 C-0.77916092 8.97874074 -1.13016601 5.02296004 0 0 Z " fill="#01A38B" transform="translate(1009,572)"/>
<path d="M0 0 C3.55140441 3.55140441 3.05396178 8.63048494 3.0625 13.4375 C3.041875 14.613125 3.02125 15.78875 3 17 C2.67 17 2.34 17 2 17 C1.81824219 15.98679687 1.81824219 15.98679687 1.6328125 14.953125 C1.46523437 14.06109375 1.29765625 13.1690625 1.125 12.25 C0.96257812 11.36828125 0.80015625 10.4865625 0.6328125 9.578125 C0.03203736 7.13052256 -0.77997117 5.19400143 -2 3 C-1.34 2.01 -0.68 1.02 0 0 Z " fill="#05312A" transform="translate(1381,534)"/>
<path d="M0 0 C0.66 0 1.32 0 2 0 C2 0.66 2 1.32 2 2 C1.34 2 0.68 2 0 2 C-0.268125 2.886875 -0.53625 3.77375 -0.8125 4.6875 C-1.9250635 7.7909666 -3.10195778 10.31110685 -5 13 C-5.66 13 -6.32 13 -7 13 C-5.39516194 8.33138019 -3.02509806 3.90741833 0 0 Z " fill="#003A30" transform="translate(154,519)"/>
<path d="M0 0 C3.89006773 1.38780795 6.96558708 3.2152227 10.3125 5.625 C11.19550781 6.25664062 12.07851562 6.88828125 12.98828125 7.5390625 C13.65214844 8.02117187 14.31601563 8.50328125 15 9 C14.01 9.33 13.02 9.66 12 10 C9.84375 8.671875 9.84375 8.671875 7.5 6.75 C6.7265625 6.12609375 5.953125 5.5021875 5.15625 4.859375 C3.35084183 3.30253752 1.65244658 1.71600221 0 0 Z " fill="#00D0B1" transform="translate(128,239)"/>
<path d="M0 0 C-1.44253657 3.36591866 -3.33264727 5.51047079 -6 8 C-6.66 7.67 -7.32 7.34 -8 7 C-4.13157895 0 -4.13157895 0 0 0 Z " fill="#00C6A7" transform="translate(118,75)"/>
<path d="M0 0 C-1.45449401 1.0055761 -2.91372443 2.00430435 -4.375 3 C-5.59316406 3.8353125 -5.59316406 3.8353125 -6.8359375 4.6875 C-9 6 -9 6 -11 6 C-11 6.66 -11 7.32 -11 8 C-11.66 7.67 -12.32 7.34 -13 7 C-4.84931507 -1.61643836 -4.84931507 -1.61643836 0 0 Z " fill="#00CEAF" transform="translate(929,165)"/>
<path d="M0 0 C0.33 0 0.66 0 1 0 C1.24887295 2.10192697 1.4734719 4.20673964 1.6875 6.3125 C1.81511719 7.48425781 1.94273437 8.65601563 2.07421875 9.86328125 C2 13 2 13 -1 16 C-0.67 10.72 -0.34 5.44 0 0 Z " fill="#019880" transform="translate(128,168)"/>
<path d="M0 0 C5.01113235 1.4317521 6.94469549 3.98445693 10 8 C9.01 8 8.02 8 7 8 C6.67 7.01 6.34 6.02 6 5 C4.35 4.67 2.7 4.34 1 4 C0.67 2.68 0.34 1.36 0 0 Z " fill="#00C6A8" transform="translate(380,84)"/>
<path d="M0 0 C1.45945288 0.08708669 2.91765868 0.19526907 4.375 0.3125 C5.59316406 0.39951172 5.59316406 0.39951172 6.8359375 0.48828125 C9 1 9 1 11 4 C7.37 3.34 3.74 2.68 0 2 C0 1.34 0 0.68 0 0 Z " fill="#00CAAB" transform="translate(294,36)"/>
<path d="M0 0 C4.59306496 1.4859916 7.43569245 3.85014682 11 7 C7.41584854 7 6.58796261 6.21108216 3.8125 4.0625 C3.09707031 3.51722656 2.38164063 2.97195313 1.64453125 2.41015625 C1.10183594 1.94480469 0.55914063 1.47945313 0 1 C0 0.67 0 0.34 0 0 Z " fill="#00C8AA" transform="translate(750,489)"/>
<path d="M0 0 C6.75 0.75 6.75 0.75 9 3 C8.67 3.66 8.34 4.32 8 5 C4.75791433 4.64950425 3.38472296 4.43778819 1.1875 1.9375 C0.795625 1.298125 0.40375 0.65875 0 0 Z " fill="#00AC93" transform="translate(173,481)"/>
<path d="M0 0 C0.33 0 0.66 0 1 0 C1.16798051 2.27073652 1.33434113 4.54159293 1.5 6.8125 C1.5928125 8.07707031 1.685625 9.34164062 1.78125 10.64453125 C1.91914781 12.75978517 2 14.88025592 2 17 C1.34 16.67 0.68 16.34 0 16 C0 10.72 0 5.44 0 0 Z " fill="#01AB93" transform="translate(126,191)"/>
<path d="M0 0 C0.99 0.33 1.98 0.66 3 1 C1.47005208 2.23697917 -0.05989583 3.47395833 -1.58984375 4.7109375 C-3.13266437 5.9666391 -3.13266437 5.9666391 -4 8 C-4.99 7.67 -5.98 7.34 -7 7 C-4.69 4.69 -2.38 2.38 0 0 Z " fill="#00C7A9" transform="translate(912,174)"/>
<path d="M0 0 C2.125 0.375 2.125 0.375 4 1 C2.35 1.66 0.7 2.32 -1 3 C-1.33 5.97 -1.66 8.94 -2 12 C-2.33 12 -2.66 12 -3 12 C-2.88601335 10.37419034 -2.75844341 8.74932843 -2.625 7.125 C-2.55539062 6.22007812 -2.48578125 5.31515625 -2.4140625 4.3828125 C-2 2 -2 2 0 0 Z " fill="#00D4B3" transform="translate(267,138)"/>
<path d="M0 0 C0.33 0 0.66 0 1 0 C1.33 3.96 1.66 7.92 2 12 C1.01 12.495 1.01 12.495 0 13 C-1.28571429 4.57142857 -1.28571429 4.57142857 0 0 Z " fill="#00A089" transform="translate(1443,479)"/>
<path d="M0 0 C2.31 0 4.62 0 7 0 C4.26295246 2.73704754 1.73955226 3.16182449 -2 4 C-4.4375 3.625 -4.4375 3.625 -6 3 C-4.02 2.67 -2.04 2.34 0 2 C0 1.34 0 0.68 0 0 Z " fill="#00C8AA" transform="translate(330,268)"/>
<path d="M0 0 C-0.99 0 -1.98 0 -3 0 C-3 0.66 -3 1.32 -3 2 C-4.32 2 -5.64 2 -7 2 C-7.33 2.66 -7.66 3.32 -8 4 C-9.32 3.34 -10.64 2.68 -12 2 C-7.89783794 -0.73477471 -4.73617773 -1.57872591 0 0 Z " fill="#043029" transform="translate(313,248)"/>
<path d="M0 0 C1.9453125 -0.29296875 1.9453125 -0.29296875 4.125 -0.1875 C5.40375 -0.125625 6.6825 -0.06375 8 0 C8 0.66 8 1.32 8 2 C4.7 2.33 1.4 2.66 -2 3 C-1.34 2.01 -0.68 1.02 0 0 Z " fill="#00A78F" transform="translate(278,534)"/>
<path d="M0 0 C1.5 1.25 1.5 1.25 3 3 C3 4.32 3 5.64 3 7 C2.34 7 1.68 7 1 7 C0.67 8.32 0.34 9.64 0 11 C-0.84098656 6.98195309 -1.05404945 3.98196457 0 0 Z " fill="#01947F" transform="translate(566,377)"/>
<path d="M0 0 C0.33 0.66 0.66 1.32 1 2 C-0.98 4.64 -2.96 7.28 -5 10 C-5.66 9.67 -6.32 9.34 -7 9 C-4.69 6.03 -2.38 3.06 0 0 Z " fill="#00CEAF" transform="translate(81,112)"/>
<path d="M0 0 C4.43458973 1.3937282 6.87378374 3.60582235 10 7 C6.65580848 7 5.93159679 6.52480606 3.3125 4.625 C2.68988281 4.18414062 2.06726563 3.74328125 1.42578125 3.2890625 C0.95527344 2.86367187 0.48476562 2.43828125 0 2 C0 1.34 0 0.68 0 0 Z " fill="#00CEAF" transform="translate(204,108)"/>
<path d="M0 0 C3.91211733 1.15585285 6.8745041 2.35534962 10 5 C9.67 5.66 9.34 6.32 9 7 C7.4972763 6.02501855 5.99788037 5.04490611 4.5 4.0625 C3.6646875 3.51722656 2.829375 2.97195313 1.96875 2.41015625 C1.3190625 1.94480469 0.669375 1.47945312 0 1 C0 0.67 0 0.34 0 0 Z " fill="#00BFA3" transform="translate(689,537)"/>
<path d="M0 0 C3.67420866 0.30618405 4.78135513 0.75771784 7.3125 3.5625 C8.1478125 4.7690625 8.1478125 4.7690625 9 6 C5.9168649 4.80100302 2.93720508 3.52299523 0 2 C0 1.34 0 0.68 0 0 Z " fill="#01C9AA" transform="translate(412,402)"/>
<path d="M0 0 C-2.39509338 2.89932357 -4.31245243 3.50168276 -8 4 C-8.33 3.01 -8.66 2.02 -9 1 C-5.57367167 -0.61798838 -3.61944899 -1.34053666 0 0 Z " fill="#00AD93" transform="translate(319,273)"/>
<path d="M0 0 C0.66 0.33 1.32 0.66 2 1 C-1.96 4.465 -1.96 4.465 -6 8 C-6.66 7.67 -7.32 7.34 -8 7 C-5.36 4.69 -2.72 2.38 0 0 Z " fill="#01D0B2" transform="translate(135,91)"/>
<path d="M0 0 C0.66 0.33 1.32 0.66 2 1 C-0.31 3.64 -2.62 6.28 -5 9 C-5.33 8.01 -5.66 7.02 -6 6 C-4.02 4.02 -2.04 2.04 0 0 Z " fill="#00C1A6" transform="translate(184,653)"/>
<path d="M0 0 C2.97 0.99 5.94 1.98 9 3 C9 3.66 9 4.32 9 5 C5.7 4.01 2.4 3.02 -1 2 C-0.67 1.34 -0.34 0.68 0 0 Z " fill="#00271D" transform="translate(178,510)"/>
<path d="M0 0 C0.33 0.66 0.66 1.32 1 2 C1.66 2.33 2.32 2.66 3 3 C1.35 4.65 -0.3 6.3 -2 8 C-2.33 7.34 -2.66 6.68 -3 6 C-2.06553465 3.96855359 -1.06775224 1.96466413 0 0 Z " fill="#01A08A" transform="translate(1328,495)"/>
<path d="M0 0 C0.33 0.66 0.66 1.32 1 2 C-1.31 3.65 -3.62 5.3 -6 7 C-6.66 6.67 -7.32 6.34 -8 6 C-5.51047079 3.33264727 -3.36591866 1.44253657 0 0 Z " fill="#01D3B3" transform="translate(153,121)"/>
<path d="M0 0 C0.66 0.33 1.32 0.66 2 1 C-0.31 3.64 -2.62 6.28 -5 9 C-5 4.61031544 -2.87194899 3.23094261 0 0 Z " fill="#00CEAF" transform="translate(89,102)"/>
<path d="M0 0 C4.41889613 1.35021826 6.34345343 3.26115668 9 7 C5.56072421 5.7580393 2.74792181 4.44259716 0 2 C0 1.34 0 0.68 0 0 Z " fill="#00D3B3" transform="translate(360,67)"/>
<path d="M0 0 C3 4 3 4 3.07421875 6.140625 C2.71614583 8.09375 2.35807292 10.046875 2 12 C1.67 12 1.34 12 1 12 C0.67 8.04 0.34 4.08 0 0 Z " fill="#028371" transform="translate(955,704)"/>
<path d="M0 0 C0.66 0.33 1.32 0.66 2 1 C0.02 3.31 -1.96 5.62 -4 8 C-4.66 7.34 -5.32 6.68 -6 6 C-4.02 4.02 -2.04 2.04 0 0 Z " fill="#003F34" transform="translate(200,539)"/>
<path d="M0 0 C0.66 0.33 1.32 0.66 2 1 C0.02 3.31 -1.96 5.62 -4 8 C-4.33 7.01 -4.66 6.02 -5 5 C-3.35 3.35 -1.7 1.7 0 0 Z " fill="#003B30" transform="translate(207,531)"/>
<path d="M0 0 C0.4125 0.556875 0.825 1.11375 1.25 1.6875 C3.12256399 4.16195956 5.05339344 6.5835229 7 9 C4.625 8.8125 4.625 8.8125 2 8 C0.40339294 5.11090151 0 3.30941204 0 0 Z " fill="#00C9AB" transform="translate(172,437)"/>
<path d="M0 0 C0.66 0 1.32 0 2 0 C1.67 3.3 1.34 6.6 1 10 C-1.17766075 5.64467851 -1.03039555 4.53374042 0 0 Z " fill="#01A58B" transform="translate(952,289)"/>
<path d="M0 0 C0.66 0.66 1.32 1.32 2 2 C1.75 5.0625 1.75 5.0625 1 8 C0.01 8.495 0.01 8.495 -1 9 C-0.67 6.03 -0.34 3.06 0 0 Z " fill="#00D3B2" transform="translate(260,165)"/>
<path d="M0 0 C7.75 0.75 7.75 0.75 10 3 C3.47692308 3.36923077 3.47692308 3.36923077 1.0625 1.5 C0.5365625 0.7575 0.5365625 0.7575 0 0 Z " fill="#00C8AA" transform="translate(284,60)"/>
<path d="M0 0 C0.99 0.33 1.98 0.66 3 1 C1.02 1.99 1.02 1.99 -1 3 C-1 3.66 -1 4.32 -1 5 C-1.99 5 -2.98 5 -4 5 C-2.25 1.125 -2.25 1.125 0 0 Z " fill="#00C9AA" transform="translate(138,59)"/>
</svg>
